<?xml version="1.0" encoding="UTF-8" standalone="no"?>
<svg
   xmlns:dc="http://purl.org/dc/elements/1.1/"
   xmlns:cc="http://creativecommons.org/ns#"
   xmlns:rdf="http://www.w3.org/1999/02/22-rdf-syntax-ns#"
   xmlns:svg="http://www.w3.org/2000/svg"
   xmlns="http://www.w3.org/2000/svg"
   xmlns:xlink="http://www.w3.org/1999/xlink"
   xmlns:sodipodi="http://sodipodi.sourceforge.net/DTD/sodipodi-0.dtd"
   xmlns:inkscape="http://www.inkscape.org/namespaces/inkscape"
   id="98b38715-c4ac-41e9-8897-c725e8bf1e12"
   data-name="Layer 1"
   width="630"
   height="452"
   viewBox="0 0 629.99999 451.99998"
   version="1.1"
   sodipodi:docname="SignInPage_Svg.svg"
   inkscape:version="0.92.3 (2405546, 2018-03-11)">
  <metadata
     id="metadata3239">
    <rdf:RDF>
      <cc:Work
         rdf:about="">
        <dc:format>image/svg+xml</dc:format>
        <dc:type
           rdf:resource="http://purl.org/dc/dcmitype/StillImage" />
        <dc:title>taking notes</dc:title>
      </cc:Work>
    </rdf:RDF>
  </metadata>
  <sodipodi:namedview
     pagecolor="#ffffff"
     bordercolor="#666666"
     borderopacity="1"
     objecttolerance="10"
     gridtolerance="10"
     guidetolerance="10"
     inkscape:pageopacity="0"
     inkscape:pageshadow="2"
     inkscape:window-width="1366"
     inkscape:window-height="705"
     id="namedview3237"
     showgrid="false"
     showborder="true"
     inkscape:zoom="0.76775686"
     inkscape:cx="353.21674"
     inkscape:cy="302.43126"
     inkscape:window-x="-8"
     inkscape:window-y="-8"
     inkscape:window-maximized="1"
     inkscape:current-layer="g8303" />
  <defs
     id="defs2850">
    <linearGradient
       id="7b7941dc-94c7-4e08-95d0-23e2d7e6a13e"
       x1="847.40997"
       y1="397.42001"
       x2="847.40997"
       y2="188.07001"
       gradientUnits="userSpaceOnUse">
      <stop
         offset="0"
         stop-color="gray"
         stop-opacity="0.25"
         id="stop2837" />
      <stop
         offset="0.54"
         stop-color="gray"
         stop-opacity="0.12"
         id="stop2839" />
      <stop
         offset="1"
         stop-color="gray"
         stop-opacity="0.1"
         id="stop2841" />
    </linearGradient>
    <linearGradient
       id="58fdd33a-cfcb-43d1-a0c9-e446396930cd"
       x1="271.51001"
       y1="395.01001"
       x2="271.51001"
       y2="173.08"
       xlink:href="#7b7941dc-94c7-4e08-95d0-23e2d7e6a13e"
       gradientTransform="matrix(0.59809048,0,0,0.58985882,-42.922631,-11.035036)" />
    <linearGradient
       id="c04aec50-9c50-409e-ad7f-74c73d302a04"
       x1="847.53998"
       y1="734.89001"
       x2="847.53998"
       y2="461.04999"
       xlink:href="#7b7941dc-94c7-4e08-95d0-23e2d7e6a13e"
       gradientTransform="matrix(0.59809048,0,0,0.58985882,-42.922631,-11.035036)" />
    <linearGradient
       id="9dea3c81-3991-41bb-bbde-f73dfae923cb"
       x1="211.57001"
       y1="705.73999"
       x2="211.57001"
       y2="443.19"
       xlink:href="#7b7941dc-94c7-4e08-95d0-23e2d7e6a13e" />
    <linearGradient
       id="6cea3303-4509-42ee-9c3d-a24167e8af03"
       x1="570.69"
       y1="731.34998"
       x2="570.69"
       y2="470.67001"
       xlink:href="#7b7941dc-94c7-4e08-95d0-23e2d7e6a13e"
       gradientTransform="matrix(0.59809048,0,0,0.58985882,-42.922631,-11.035036)" />
    <linearGradient
       id="407b4fac-28f5-4df4-8381-e2a74f9e4c70"
       x1="610.78003"
       y1="318.04001"
       x2="610.78003"
       y2="160.28999"
       xlink:href="#7b7941dc-94c7-4e08-95d0-23e2d7e6a13e"
       gradientTransform="matrix(0.59809048,0,0,0.58985882,-42.922631,-11.035036)" />
    <linearGradient
       id="be916110-cb9e-4f1d-be15-effb40ceb94a"
       x1="625.44"
       y1="870.16998"
       x2="625.44"
       y2="202.10001"
       xlink:href="#7b7941dc-94c7-4e08-95d0-23e2d7e6a13e"
       gradientTransform="matrix(0.59809048,0,0,0.58985882,-42.922631,-11.035036)" />
    <linearGradient
       gradientUnits="userSpaceOnUse"
       y2="247.60001"
       x2="232.42999"
       y1="292.26001"
       x1="232.42999"
       id="ea2a8d95-0699-482c-91e0-ca0cacc7c232">
      <stop
         id="stop7898"
         stop-opacity="0.25"
         stop-color="gray"
         offset="0" />
      <stop
         id="stop7900"
         stop-opacity="0.12"
         stop-color="gray"
         offset="0.54" />
      <stop
         id="stop7902"
         stop-opacity="0.1"
         stop-color="gray"
         offset="1" />
    </linearGradient>
    <linearGradient
       xlink:href="#ea2a8d95-0699-482c-91e0-ca0cacc7c232"
       y2="202.46001"
       x2="408.14999"
       y1="247.13"
       x1="408.14999"
       id="b656a8ae-b549-4f4b-a44e-d2f1362afc31"
       gradientTransform="matrix(1,0,0,1.0454876,-1177.8202,-19.035177)" />
    <linearGradient
       xlink:href="#ea2a8d95-0699-482c-91e0-ca0cacc7c232"
       y2="289.17001"
       x2="616.5"
       y1="333.84"
       x1="616.5"
       id="b10a0065-53c1-4d9e-b99d-b718a629214b"
       gradientTransform="matrix(1,0,0,1.0454876,-1177.8202,-19.035177)" />
    <linearGradient
       xlink:href="#ea2a8d95-0699-482c-91e0-ca0cacc7c232"
       y2="318.75"
       x2="829.09003"
       y1="363.41"
       x1="829.09003"
       id="bfbeeaf2-a683-44d0-8e10-e16cdf93710e"
       gradientTransform="matrix(1,0,0,1.0454876,-1177.8202,-19.035177)" />
    <linearGradient
       xlink:href="#ea2a8d95-0699-482c-91e0-ca0cacc7c232"
       y2="347.66"
       x2="886.06"
       y1="392.32001"
       x1="886.06"
       id="fb4cfe3a-7af2-4b22-b7a9-00d134c7f93e"
       gradientTransform="matrix(1,0,0,1.0454876,-1177.8202,-19.035177)" />
    <linearGradient
       xlink:href="#ea2a8d95-0699-482c-91e0-ca0cacc7c232"
       y2="270.41"
       x2="957.48999"
       y1="315.07999"
       x1="957.48999"
       id="bf81fb29-ed39-4b28-8488-01fed2cfb575"
       gradientTransform="matrix(1,0,0,1.0454876,-1177.8202,-19.035177)" />
    <linearGradient
       xlink:href="#ea2a8d95-0699-482c-91e0-ca0cacc7c232"
       y2="333.07001"
       x2="943.03003"
       y1="377.73001"
       x1="943.03003"
       id="b71406f3-4257-4384-ba99-31ba324d4435"
       gradientTransform="matrix(1,0,0,1.0454876,-1177.8202,-19.035177)" />
    <linearGradient
       xlink:href="#ea2a8d95-0699-482c-91e0-ca0cacc7c232"
       y2="202.46001"
       x2="471.07999"
       y1="247.13"
       x1="471.07999"
       id="eb943baf-c412-4f05-8efc-9ee158cc9537"
       gradientTransform="matrix(1,0,0,1.0454876,-1177.8202,-19.035177)" />
    <linearGradient
       xlink:href="#ea2a8d95-0699-482c-91e0-ca0cacc7c232"
       y2="310.73001"
       x2="255.53"
       y1="355.39999"
       x1="255.53"
       id="b69c398c-54a9-47dd-afd9-5e0a5757f9a8"
       gradientTransform="matrix(1,0,0,1.0454876,-1177.8202,-19.035177)" />
    <linearGradient
       xlink:href="#ea2a8d95-0699-482c-91e0-ca0cacc7c232"
       y2="266.84"
       x2="441.44"
       y1="311.5"
       x1="441.44"
       id="e3af3aa4-a222-4e60-9637-0eaa2901e9f3"
       gradientTransform="matrix(1,0,0,1.0454876,-1177.8202,-19.035177)" />
    <linearGradient
       xlink:href="#ea2a8d95-0699-482c-91e0-ca0cacc7c232"
       y2="240.14999"
       x2="681.87"
       y1="284.81"
       x1="681.87"
       id="ad37da05-9f52-438b-b0f9-c6be067943d0"
       gradientTransform="matrix(1,0,0,1.0454876,-1177.8202,-19.035177)" />
    <linearGradient
       xlink:href="#ea2a8d95-0699-482c-91e0-ca0cacc7c232"
       y2="208.83"
       x2="925.27002"
       y1="253.49001"
       x1="925.27002"
       id="a265d039-0f6d-45fd-ab7e-3e2cd81e15a7"
       gradientTransform="matrix(1,0,0,1.0454876,-1177.8202,-19.035177)" />
    <linearGradient
       xlink:href="#ea2a8d95-0699-482c-91e0-ca0cacc7c232"
       y2="202.46001"
       x2="742.72998"
       y1="247.13"
       x1="742.72998"
       id="babc5ba7-c6fe-48e2-92bf-72856f98d351"
       gradientTransform="matrix(1,0,0,1.0454876,-1177.8202,-19.035177)" />
    <linearGradient
       xlink:href="#ea2a8d95-0699-482c-91e0-ca0cacc7c232"
       y2="289.17001"
       x2="740.12"
       y1="333.84"
       x1="740.12"
       id="ec9e310d-9a5b-45f6-8698-da6dc9c57588"
       gradientTransform="matrix(1,0,0,1.0454876,-1177.8202,-19.035177)" />
    <linearGradient
       xlink:href="#ea2a8d95-0699-482c-91e0-ca0cacc7c232"
       y2="224.03"
       x2="533.02002"
       y1="268.69"
       x1="533.02002"
       id="b3661b6d-d573-4e01-a978-b086bfcbdc08"
       gradientTransform="matrix(1,0,0,1.0454876,-1177.8202,-19.035177)" />
    <linearGradient
       xlink:href="#ea2a8d95-0699-482c-91e0-ca0cacc7c232"
       y2="238.39999"
       x2="287.92001"
       y1="283.06"
       x1="287.92001"
       id="b8b14048-6787-4a2b-bd44-c1ec7ea7272f"
       gradientTransform="matrix(1,0,0,1.0454876,-1177.8202,-19.035177)" />
    <linearGradient
       xlink:href="#ea2a8d95-0699-482c-91e0-ca0cacc7c232"
       y2="289.17001"
       x2="310.98001"
       y1="333.84"
       x1="310.98001"
       id="fe094bed-fd2f-41a8-9bb1-a3b86eba6c14"
       gradientTransform="matrix(1,0,0,1.0454876,-1177.8202,-19.035177)" />
    <linearGradient
       xlink:href="#ea2a8d95-0699-482c-91e0-ca0cacc7c232"
       y2="296.42001"
       x2="502.32001"
       y1="341.07999"
       x1="502.32001"
       id="b9692457-795f-4873-987a-fd1d41e3d8dd"
       gradientTransform="matrix(1,0,0,1.0454876,-1177.8202,-19.035177)" />
    <linearGradient
       xlink:href="#ea2a8d95-0699-482c-91e0-ca0cacc7c232"
       y2="208.83"
       x2="839.92999"
       y1="253.49001"
       x1="839.92999"
       id="b4b795d7-efc6-49d3-84fc-f260d7c9dd5c"
       gradientTransform="matrix(1,0,0,1.0454876,-1177.8202,-19.035177)" />
    <linearGradient
       xlink:href="#ea2a8d95-0699-482c-91e0-ca0cacc7c232"
       y2="270.41"
       x2="880.75"
       y1="315.07999"
       x1="880.75"
       id="e5745201-e903-41b8-9c5c-e2d7c4777962"
       gradientTransform="matrix(1,0,0,1.0454876,-1177.8202,-19.035177)" />
    <linearGradient
       xlink:href="#ea2a8d95-0699-482c-91e0-ca0cacc7c232"
       y2="202.46001"
       x2="620.53003"
       y1="247.13"
       x1="620.53003"
       id="b3cc34d3-f838-4603-bb51-088152e015c9"
       gradientTransform="matrix(1,0,0,1.0454876,-1177.8202,-19.035177)" />
    <linearGradient
       xlink:href="#ea2a8d95-0699-482c-91e0-ca0cacc7c232"
       y2="333.07001"
       x2="676.65002"
       y1="377.73001"
       x1="676.65002"
       id="b3771d5f-6b05-4923-81a0-f9623be616e8"
       gradientTransform="matrix(1,0,0,1.0454876,-1177.8202,-19.035177)" />
    <linearGradient
       xlink:href="#ea2a8d95-0699-482c-91e0-ca0cacc7c232"
       gradientTransform="matrix(1,0,0,1.0454876,0.75022438,-51.999401)"
       y2="245.95"
       x2="378.28"
       y1="850.01001"
       x1="378.28"
       id="a5464100-bfa1-4039-8123-dc9b79f8f7ac" />
    <linearGradient
       xlink:href="#ea2a8d95-0699-482c-91e0-ca0cacc7c232"
       gradientTransform="matrix(-1,0,0,1,1014.03,0)"
       y2="228.24001"
       x2="499.10999"
       y1="829.73999"
       x1="499.10999"
       id="f7a9ddad-0622-4a2a-ab1d-dd2f922ca980" />
    <linearGradient
       inkscape:collect="always"
       xlink:href="#ea2a8d95-0699-482c-91e0-ca0cacc7c232"
       id="linearGradient8305"
       gradientUnits="userSpaceOnUse"
       x1="232.42999"
       y1="292.26001"
       x2="232.42999"
       y2="247.60001"
       gradientTransform="matrix(-1,0,0,1.0454876,1188.9102,-51.999401)" />
  </defs>
  <title
     id="title2852">taking notes</title>
  <g
     id="g8303"
     transform="matrix(0.52926251,0,0,0.49084564,3.087605,17.518556)">
    <path
       id="path7932"
       d="M 2.2438107e-4,542.95621 A 320.15,334.71284 0 0 0 7.0702244,613.30707 q 2.38,11.61536 5.5299996,22.77072 3.9,13.90498 8.92,26.96312 2.55,6.6493 5.39,13.06859 a 190.7,199.37448 0 0 0 12.17,70.6436 c 14.35,39.72853 40.48,72.13864 73.179996,91.07242 a 137,143.2318 0 0 0 66.65,18.14966 h 775.32 c 41.44,0 79.84998,-15.40003 111.33998,-41.64177 a 205.27,214.60723 0 0 0 25.57,-25.45762 217.49,227.38309 0 0 0 28.11,-42.12269 c 18.14,-34.86701 28.59,-75.91285 28.59,-119.84424 18.95,-40.11536 29.98,-88.20779 29.98,-139.95942 0,-65.22797 -17.56,-124.71621 -46.41,-169.76627 a 222.06,232.16097 0 0 0 -19.71,-26.4822 192.82,201.59091 0 0 0 -22.54,-22.2898 171.51,179.31157 0 0 0 -20,-14.49045 c -2.89,-1.77733 -5.79,-3.45011 -8.74,-5.00789 q -3.88,-2.09097 -7.86,-3.89967 -4.77,-2.19552 -9.66,-4.02512 -4.89,-1.82961 -9.65,-3.20965 a 136.49,142.6986 0 0 0 -14.25,-3.3142 c -4,-0.72138 -8,-1.25458 -12,-1.59959 q -4.77,-0.40774 -9.61998,-0.47047 c -0.59,0 -1.16,0 -1.75,0 -3.56,0 -7.1,0.17773 -10.61,0.46001 -0.37,-0.89912 -0.77,-1.79824 -1.14,-2.69736 -1.4,-3.2201 -2.85,-6.41929 -4.31,-9.57666 a 0.35,0.36592065 0 0 1 0,-0.0836 c -0.25,-0.54365 -0.5,-1.04549 -0.76,-1.62051 -1.18,-2.5719 -2.41,-5.12289 -3.67,-7.65297 -0.58,-1.17094 -1.15,-2.33143 -1.74,-3.49192 -0.13,-0.27183 -0.26,-0.5332 -0.41,-0.80503 -0.6,-1.20231 -1.21,-2.39417 -1.83,-3.58602 q -4.63,-8.91801 -9.63,-17.56419 c -0.29,-0.49138 -0.56,-0.98276 -0.85,-1.46369 -0.52,-0.88866 -1,-1.77732 -1.58,-2.65553 -1.38,-2.3419 -2.8,-4.67333 -4.23,-6.98386 -1,-1.63096 -2,-3.26192 -3.08,-4.87197 q -3.9,-6.11611 -8,-12.07538 -4.1,-5.95928 -8.52,-11.91856 c -0.4,-0.54366 -0.8,-1.04549 -1.22,-1.62051 l -4.27,-5.61427 v 0 l -0.59,-0.7632 v 0 l -1.55,-1.97597 c -2.29,-2.91691 -4.64,-5.80246 -7,-8.65664 a 402.78,421.10148 0 0 0 -38.3,-40.303546 c -0.53,-0.512289 -1.07,-1.045488 -1.6,-1.484593 -2.54,-2.310527 -5.12,-4.58969 -7.7,-6.827034 a 403.55,421.90651 0 0 0 -44.41,-33.455602 c -1.06,-0.710931 -2.14,-1.400953 -3.23,-2.090975 a 403.86,422.23061 0 0 0 -42.49,-23.628019 q -12,-5.771091 -24.25,-10.6848825 c -5.42,-2.1537044 -10.86,-4.1819502 -16.37,-6.1056474 q -12.78,-4.4119575 -25.88,-7.9979798 a 404.94,423.35973 0 0 0 -78.24,-12.8804063 q -12,-0.752752 -24.27,-0.752752 a 406.42,424.90706 0 0 0 -116.99,17.8673829 4.08,4.2655893 0 0 1 -3.63,2.2791629 h -3.37 c -1.46,0.4809243 -2.91,0.9827583 -4.37,1.4845923 q -12.23,4.2446796 -24.11,9.2943849 l -2,0.857299 a 405.55,423.99748 0 0 0 -104.56,65.719349 q -3.51,3.021459 -6.92,6.137012 -4.14,-3.209647 -8.42,-6.137012 a 154,161.00508 0 0 0 -34.88,-17.961477 138.67,144.97776 0 0 0 -78.24,-3.701026 c -33.25,8.520724 -63.35,29.660482 -87.66,59.718249 a 234.54,245.20865 0 0 0 -26.29,40.314 c -0.55,1.04549 -1.1,2.09098 -1.63,3.13646 a 271.55,283.90215 0 0 0 -16.739996,40.30355 c -0.17,0.50183 -0.34,1.04549 -0.49,1.5055 a 298.58,312.16168 0 0 0 -10.3,40.28264 c -0.12,0.69002 -0.26,1.3905 -0.38,2.09097 a 317.85,332.30822 0 0 0 -4.92,40.30355 c 0,0.49138 0,0.98276 -0.08,1.47414 q -0.63,10.5176 -0.64,21.26521 0,9.61849 0.51,19.04879 c 0,0.70047 0.08,1.4114 0.13,2.09097 0.09,1.8296 0.22,3.65921 0.35,5.47836 a 205.42,214.76406 0 0 0 -21.38,24.33895 q -4.37,5.78154 -8.46,11.97083 a 249.89,261.25689 0 0 0 -21.8,40.30354 C 9.7202244,449.06097 2.2438107e-4,494.41422 2.2438107e-4,542.95621 Z"
       inkscape:connector-curvature="0"
       style="opacity:0.1;fill:#2f7dfe;stroke-width:1.02249086" />
    <path
       id="path7934"
       d="m 105.00022,815.57754 c 0,15.5255 45.92,29.69185 121.38,40.39764 h 708 c 75.44998,-10.70579 121.36998,-24.87214 121.36998,-40.39764 0,-11.82446 -26.64,-22.86481 -72.69998,-32.19056 v 0 l -1.3,-0.26137 c -13,-2.60326 -27.53,-5.07061 -43.41,-7.38114 l -1.21,-0.17773 v 0 q -18.9,-2.72873 -40.21,-5.15426 l -1.34,-0.14637 q -8.22,-0.94093 -16.78,-1.81914 v 0 l -2.2,-0.21956 c -41.55,-4.18195 -88.78,-7.56933 -140,-9.83803 h -0.06 q -10.76,-0.47047 -21.75,-0.87821 -12.22,-0.47047 -24.74,-0.83639 c -6.37,-0.19865 -12.82,-0.36593 -19.29,-0.52275 h -0.15 c -29.19,-0.72138 -59.35,-1.09776 -90.19,-1.09776 -76.26,0 -148.34,2.28962 -212.21,6.35656 h -0.18 c -9.82,0.6273 -19.46,1.28595 -28.86,1.99689 l -8,0.61683 q -15.91,1.25459 -31,2.65554 v 0 c -118.33,11.00899 -195.17,28.81364 -195.17,48.89745 z"
       inkscape:connector-curvature="0"
       style="opacity:0.1;fill:#2f7dfe;stroke-width:1.02249086" />
    <path
       id="path7936"
       stroke-miterlimit="10"
       d="m 860.91022,91.075574 v 31.709636 a 4.1,4.286499 0 0 0 4.1,4.29696 h 55.52 a 402.78,421.10148 0 0 0 -38.3,-40.30355 h -17.23 a 4.1,4.286499 0 0 0 -4.09,4.296954 z"
       inkscape:connector-curvature="0"
       style="opacity:0.02999998;fill:none;stroke:#ffffff;stroke-width:1.02249086;stroke-miterlimit:10" />
    <path
       id="path7938"
       d="M 181.51022,91.012844 V 567.35789 a 12,12.545851 0 0 0 12,12.54585 h 813.48998 a 12,12.545851 0 0 0 12,-12.54585 v -332.8937 c -4,-0.72138 -8,-1.25458 -12,-1.59959 q -4.77,-0.40774 -9.61998,-0.47047 c -0.59,0 -1.16,0 -1.75,0 -3.56,0 -7.1,0.17773 -10.61,0.46001 -0.37,-0.89912 -0.77,-1.79824 -1.14,-2.69736 -1.4,-3.2201 -2.85,-6.41929 -4.31,-9.57666 a 0.35,0.36592065 0 0 1 0,-0.0836 c -0.25,-0.54365 -0.5,-1.04549 -0.76,-1.62051 -1.18,-2.5719 -2.41,-5.12289 -3.67,-7.65297 -0.58,-1.17094 -1.15,-2.33143 -1.74,-3.49192 -0.13,-0.27183 -0.26,-0.5332 -0.41,-0.80503 -0.6,-1.20231 -1.21,-2.39417 -1.83,-3.58602 q -4.63,-8.91801 -9.63,-17.56419 c -0.29,-0.49138 -0.56,-0.98276 -0.85,-1.46369 -0.52,-0.88866 -1,-1.77732 -1.58,-2.65553 -1.38,-2.3419 -2.8,-4.67333 -4.23,-6.98386 -1,-1.63096 -2,-3.26192 -3.08,-4.87197 q -3.9,-6.11611 -8,-12.07538 -4.1,-5.95928 -8.52,-11.91856 c -0.4,-0.54366 -0.8,-1.04549 -1.22,-1.62051 l -4.27,-5.61427 v 0 l -0.59,-0.7632 v 0 l -1.55,-1.97597 c -2.29,-2.91691 -4.64,-5.80246 -7,-8.65664 a 402.78,421.10148 0 0 0 -38.3,-40.303546 c -0.53,-0.512289 -1.07,-1.045488 -1.6,-1.484593 -2.54,-2.310527 -5.12,-4.58969 -7.7,-6.827034 h -518.2 q -3.51,3.02146 -6.92,6.137012 -4.14,-3.209646 -8.42,-6.137012 h -146 a 12,12.545851 0 0 0 -11.99,12.451757 z"
       inkscape:connector-curvature="0"
       style="fill:#ffffff;stroke-width:1.02249086" />
    <path
       id="path7940"
       d="m 229.48022,169.73806 v 11.85583 h 729.55 c -1.38,-2.3419 -2.8,-4.67333 -4.24,-6.98386 -1,-1.63096 -2,-3.26192 -3.07,-4.87197 z"
       inkscape:connector-curvature="0"
       style="fill:#3f3d56;stroke-width:1.02249086" />
    <rect
       id="rect7942"
       transform="matrix(0,1,1,0,0,0)"
       height="11.34"
       width="451.4938"
       y="385.96024"
       x="111.81803"
       style="fill:#3f3d56;stroke-width:1.02249086" />
    <rect
       id="rect7944"
       transform="matrix(0,1,1,0,0,0)"
       height="11.34"
       width="451.4938"
       y="594.59021"
       x="111.81806"
       style="fill:#3f3d56;stroke-width:1.02249086" />
    <rect
       id="rect7946"
       transform="matrix(0,1,1,0,0,0)"
       height="11.34"
       width="451.4938"
       y="803.22021"
       x="111.81805"
       style="fill:#3f3d56;stroke-width:1.02249086" />
    <path
       id="path7948"
       d="m 933.42022,206.86332 v 46.69148 h 46.12 v -33.03741 c 0,0 0,-0.0523 0,-0.0836 -0.25,-0.54365 -0.5,-1.04549 -0.76,-1.62051 -1.19,-2.5719 -2.41,-5.12289 -3.68,-7.65296 -0.57,-1.17095 -1.14,-2.33144 -1.73,-3.49193 -0.13,-0.27183 -0.27,-0.5332 -0.41,-0.80503 z"
       inkscape:connector-curvature="0"
       style="fill:url(#linearGradient8305);stroke-width:1.02249086" />
    <path
       id="path7950"
       d="m 934.21022,207.66835 v 45.08142 h 44.53 v -33.96789 c -1.19,-2.5719 -2.41,-5.12289 -3.68,-7.65297 -0.57,-1.17095 -1.14,-2.33144 -1.73,-3.49193 z"
       inkscape:connector-curvature="0"
       style="fill:#d8d8d8;stroke-width:1.02249086;fill-opacity:0.99607843" />
    <rect
       id="rect7952"
       height="46.691475"
       width="46.130001"
       y="192.63425"
       x="-792.74023"
       style="fill:url(#b656a8ae-b549-4f4b-a44e-d2f1362afc31);stroke-width:1.02249086"
       transform="scale(-1,1)" />
    <rect
       id="rect7954"
       height="45.081421"
       width="44.540001"
       y="193.43925"
       x="-791.94025"
       style="fill:#7cfcff;stroke-width:1.02249086"
       transform="scale(-1,1)" />
    <rect
       id="rect7956"
       height="46.691475"
       width="46.130001"
       y="283.28848"
       x="-584.39026"
       style="fill:url(#b10a0065-53c1-4d9e-b99d-b718a629214b);stroke-width:1.02249086"
       transform="scale(-1,1)" />
    <rect
       id="rect7958"
       height="45.081421"
       width="44.540001"
       y="284.09348"
       x="-583.59027"
       style="fill:#7cfcff;stroke-width:1.02249086"
       transform="scale(-1,1)" />
    <rect
       id="rect7960"
       height="46.691475"
       width="46.130001"
       y="314.21399"
       x="-371.79019"
       style="fill:url(#bfbeeaf2-a683-44d0-8e10-e16cdf93710e);stroke-width:1.02249086"
       transform="scale(-1,1)" />
    <rect
       id="rect7962"
       height="45.081421"
       width="44.540001"
       y="315.01901"
       x="-371.00021"
       style="fill:#7cfcff;stroke-width:1.02249086"
       transform="scale(-1,1)" />
    <rect
       id="rect7964"
       height="46.691475"
       width="46.130001"
       y="344.43903"
       x="-314.83023"
       style="fill:url(#fb4cfe3a-7af2-4b22-b7a9-00d134c7f93e);stroke-width:1.02249086"
       transform="scale(-1,1)" />
    <rect
       id="rect7966"
       height="45.081421"
       width="44.540001"
       y="345.24405"
       x="-314.03024"
       style="fill:#7cfcff;stroke-width:1.02249086"
       transform="scale(-1,1)" />
    <rect
       id="rect7968"
       height="46.691475"
       width="46.130001"
       y="263.67511"
       x="-243.39023"
       style="fill:url(#bf81fb29-ed39-4b28-8488-01fed2cfb575);stroke-width:1.02249086"
       transform="scale(-1,1)" />
    <rect
       id="rect7970"
       height="45.081421"
       width="44.540001"
       y="264.48013"
       x="-242.60025"
       style="fill:#d8d8d8;stroke-width:1.02249086;fill-opacity:0.99607843"
       transform="scale(-1,1)" />
    <rect
       id="rect7972"
       height="46.691475"
       width="46.130001"
       y="329.18536"
       x="-257.85025"
       style="fill:url(#b71406f3-4257-4384-ba99-31ba324d4435);stroke-width:1.02249086"
       transform="scale(-1,1)" />
    <rect
       id="rect7974"
       height="45.081421"
       width="44.540001"
       y="329.99039"
       x="-257.06021"
       style="fill:#d8d8d8;stroke-width:1.02249086;fill-opacity:0.99607843"
       transform="scale(-1,1)" />
    <rect
       id="rect7976"
       height="46.691475"
       width="46.130001"
       y="192.63425"
       x="-729.81024"
       style="fill:url(#eb943baf-c412-4f05-8efc-9ee158cc9537);stroke-width:1.02249086"
       transform="scale(-1,1)" />
    <rect
       id="rect7978"
       height="45.081421"
       width="44.540001"
       y="193.43925"
       x="-729.01025"
       style="fill:#d8d8d8;stroke-width:1.02249086;fill-opacity:0.99607843"
       transform="scale(-1,1)" />
    <rect
       id="rect7980"
       height="46.691475"
       width="46.130001"
       y="305.82919"
       x="-945.35022"
       style="fill:url(#b69c398c-54a9-47dd-afd9-5e0a5757f9a8);stroke-width:1.02249086"
       transform="scale(-1,1)" />
    <rect
       id="rect7982"
       height="45.081421"
       width="44.540001"
       y="306.63419"
       x="-944.56024"
       style="fill:#ffffa5;stroke-width:1.02249086"
       transform="scale(-1,1)" />
    <rect
       id="rect7984"
       height="46.691475"
       width="46.130001"
       y="259.94272"
       x="-759.45026"
       style="fill:url(#e3af3aa4-a222-4e60-9637-0eaa2901e9f3);stroke-width:1.02249086"
       transform="scale(-1,1)" />
    <rect
       id="rect7986"
       height="45.081421"
       width="44.540001"
       y="260.74774"
       x="-758.65021"
       style="fill:#ffffa5;stroke-width:1.02249086"
       transform="scale(-1,1)" />
    <rect
       id="rect7988"
       height="46.691475"
       width="46.130001"
       y="232.03865"
       x="-519.01025"
       style="fill:url(#ad37da05-9f52-438b-b0f9-c6be067943d0);stroke-width:1.02249086"
       transform="scale(-1,1)" />
    <rect
       id="rect7990"
       height="45.081421"
       width="44.540001"
       y="232.84369"
       x="-518.22028"
       style="fill:#ffffa5;stroke-width:1.02249086"
       transform="scale(-1,1)" />
    <rect
       id="rect7992"
       height="46.691475"
       width="46.130001"
       y="199.29399"
       x="-275.62021"
       style="fill:url(#a265d039-0f6d-45fd-ab7e-3e2cd81e15a7);stroke-width:1.02249086"
       transform="scale(-1,1)" />
    <rect
       id="rect7994"
       height="45.081421"
       width="44.540001"
       y="200.09903"
       x="-274.82022"
       style="fill:#ffffa5;stroke-width:1.02249086"
       transform="scale(-1,1)" />
    <rect
       id="rect7996"
       height="46.691475"
       width="46.130001"
       y="192.63425"
       x="-458.15024"
       style="fill:url(#babc5ba7-c6fe-48e2-92bf-72856f98d351);stroke-width:1.02249086"
       transform="scale(-1,1)" />
    <rect
       id="rect7998"
       height="45.081421"
       width="44.540001"
       y="193.43925"
       x="-457.3602"
       style="fill:#ffffa5;stroke-width:1.02249086"
       transform="scale(-1,1)" />
    <rect
       id="rect8000"
       height="46.691475"
       width="46.130001"
       y="283.28848"
       x="-460.77023"
       style="fill:url(#ec9e310d-9a5b-45f6-8698-da6dc9c57588);stroke-width:1.02249086"
       transform="scale(-1,1)" />
    <rect
       id="rect8002"
       height="45.081421"
       width="44.540001"
       y="284.09348"
       x="-459.97025"
       style="fill:#ffffa5;stroke-width:1.02249086"
       transform="scale(-1,1)" />
    <rect
       id="rect8004"
       height="46.691475"
       width="46.130001"
       y="215.18539"
       x="-667.87024"
       style="fill:url(#b3661b6d-d573-4e01-a978-b086bfcbdc08);stroke-width:1.02249086"
       transform="scale(-1,1)" />
    <rect
       id="rect8006"
       height="45.081421"
       width="44.540001"
       y="215.97997"
       x="-667.07025"
       style="fill:#ffffa5;stroke-width:1.02249086"
       transform="scale(-1,1)" />
    <rect
       id="rect8008"
       height="46.691475"
       width="46.130001"
       y="230.20905"
       x="-912.97021"
       style="fill:url(#b8b14048-6787-4a2b-bd44-c1ec7ea7272f);stroke-width:1.02249086"
       transform="scale(-1,1)" />
    <rect
       id="rect8010"
       height="45.081421"
       width="44.540001"
       y="231.01408"
       x="-912.17023"
       style="fill:#2f7dfe;stroke-width:1.02249086;fill-opacity:0.99607843"
       transform="scale(-1,1)" />
    <rect
       id="rect8012"
       height="46.691475"
       width="46.130001"
       y="283.28848"
       x="-889.90021"
       style="fill:url(#fe094bed-fd2f-41a8-9bb1-a3b86eba6c14);stroke-width:1.02249086"
       transform="scale(-1,1)" />
    <rect
       id="rect8014"
       height="45.081421"
       width="44.540001"
       y="284.09348"
       x="-889.11023"
       style="fill:#2f7dfe;stroke-width:1.02249086;fill-opacity:0.99607843"
       transform="scale(-1,1)" />
    <rect
       id="rect8016"
       height="46.691475"
       width="46.130001"
       y="290.86826"
       x="-698.56024"
       style="fill:url(#b9692457-795f-4873-987a-fd1d41e3d8dd);stroke-width:1.02249086"
       transform="scale(-1,1)" />
    <rect
       id="rect8018"
       height="45.081421"
       width="44.540001"
       y="291.67328"
       x="-697.77026"
       style="fill:#2f7dfe;stroke-width:1.02249086;fill-opacity:0.99607843"
       transform="scale(-1,1)" />
    <rect
       id="rect8020"
       height="46.691475"
       width="46.130001"
       y="199.29399"
       x="-360.96024"
       style="fill:url(#b4b795d7-efc6-49d3-84fc-f260d7c9dd5c);stroke-width:1.02249086"
       transform="scale(-1,1)" />
    <rect
       id="rect8022"
       height="45.081421"
       width="44.540001"
       y="200.09903"
       x="-360.16025"
       style="fill:#ff69b4;stroke-width:1.02249086"
       transform="scale(-1,1)" />
    <rect
       id="rect8024"
       height="46.691475"
       width="46.130001"
       y="263.67511"
       x="-320.14023"
       style="fill:url(#e5745201-e903-41b8-9c5c-e2d7c4777962);stroke-width:1.02249086"
       transform="scale(-1,1)" />
    <rect
       id="rect8026"
       height="45.081421"
       width="44.540001"
       y="264.48013"
       x="-319.34024"
       style="fill:#feb64d;stroke-width:1.02249086;fill-opacity:0.99607843"
       transform="scale(-1,1)" />
    <rect
       id="rect8028"
       height="46.691475"
       width="46.130001"
       y="192.63425"
       x="-580.36023"
       style="fill:url(#b3cc34d3-f838-4603-bb51-088152e015c9);stroke-width:1.02249086"
       transform="scale(-1,1)" />
    <rect
       id="rect8030"
       height="45.081421"
       width="44.540001"
       y="193.43925"
       x="-579.56024"
       style="fill:#2f7dfe;stroke-width:1.02249086;fill-opacity:0.99607843"
       transform="scale(-1,1)" />
    <rect
       id="rect8032"
       height="46.691475"
       width="46.130001"
       y="329.18536"
       x="-524.23022"
       style="fill:url(#b3771d5f-6b05-4923-81a0-f9623be616e8);stroke-width:1.02249086"
       transform="scale(-1,1)" />
    <rect
       id="rect8034"
       height="45.081421"
       width="44.540001"
       y="329.99039"
       x="-523.44025"
       style="fill:#2f7dfe;stroke-width:1.02249086;fill-opacity:0.99607843"
       transform="scale(-1,1)" />
    <path
       id="path8036"
       d="m 258.70022,338.49021 a 8.83,9.2316552 0 0 1 3.52,-6.18929 35.06,36.654794 0 0 1 6.12,-3.70103 5,5.2274378 0 0 0 1.78,-1.32777 15.91,16.633707 0 0 0 1,-2.00733 c 1.2,-2.18507 3.8,-2.87509 5.84,-4.18195 3.64,-2.31053 5.32,-6.40884 6.83,-10.71625 0.1,-0.27183 0.18,-0.54365 0.28,-0.80503 1.47,-4.26558 2.87,-8.63572 5.92,-11.62582 a 12.7,13.277692 0 0 1 15.88,-0.88866 3.74,3.9101235 0 0 0 2.24,1.16049 4.23,4.4224124 0 0 0 2.15,-1.21277 8.77,9.1689259 0 0 1 5.36,-1.54732 51.08,53.403505 0 0 0 1.51,-11.65718 v -0.10455 c 0,0 0,0 0,0 v 0 a 0.15,0.15682313 0 0 0 0,-0.0732 v 0 c 0,-0.9723 0,-1.93415 0,-2.90645 h -0.22 -0.41 a 7.15,7.4752361 0 0 1 -2.21,-0.26137 6,6.2729254 0 0 1 -0.87,-0.33456 v 0 c -2.69,-1.32777 -4.32,-4.46423 -5.53,-7.43342 -0.8,-1.96551 -1.54,-3.9833 -2.17,-6.04291 -0.08,-0.26138 -0.15,-0.52275 -0.24,-0.79458 v 0 c -0.11,-0.41819 -0.24,-0.84684 -0.34,-1.27549 0,-0.13591 -0.07,-0.27183 -0.1,-0.40774 -0.03,-0.13591 -0.07,-0.26137 -0.1,-0.39729 l -0.09,-0.4391 -0.51,0.37638 v 0 l -0.09,0.0523 -1.1,0.80502 c -5.16,3.69058 -10.58,7.17205 -12.82,7.25569 v 0 a 1.16,1.2127656 0 0 1 -0.66,-0.13591 c -1.45,-0.83639 1.33,-3.95195 4.82,-7.11978 0.29,-0.27182 0.6,-0.53319 0.91,-0.80502 2.59,-2.28962 5.38,-4.50605 7,-5.78155 l 1.5,-1.13958 c -2,-1.91324 -3.16,-5.34244 -3.68,-8.3639 a 62.07,64.893413 0 0 1 -0.94,-8.77164 v -0.14637 a 33.85,35.389754 0 0 1 0.81,-9.40939 c 1.36,-5.98018 4.8,-11.68855 10,-14.49045 1.5,-0.81548 3.21,-1.45323 4.69,-2.33144 0.28,-0.16728 0.53,-0.34501 0.79,-0.52274 v 0 a 6.94,7.2556837 0 0 0 1.3,-1.1605 4.53,4.7360587 0 0 0 0.66,-0.94093 2.68,2.8019067 0 0 0 0.26,-0.49138 6.06,6.3356546 0 0 1 0.74,-1.49505 c 1,-1.16049 2.68,-0.81548 4.13,-0.62729 h 0.48 0.39 0.38 c 5.19,0.12546 10.2,-2.90646 15.45,-2.90646 5.74,0 10.63,3.48147 15.69,5.86519 1,0.49138 2,0.93048 2.89,1.38004 0.76,0.37638 1.47,0.75275 2.16,1.16049 v 0 a 9.21,9.6289405 0 0 1 0.78,0.51229 v 0 a 11.1,11.604912 0 0 1 4.28,5.22744 10.3,10.768522 0 0 1 2.11,4.25513 10.06,10.517605 0 0 1 0.27,2.18507 34.67,36.247054 0 0 1 10.37,25.82354 c 0,0.51229 0,1.04549 0,1.50551 v 0.0732 a 34.7,36.278418 0 0 1 -24.69,33.20469 v 0 c -0.39,0.12545 -0.79,0.25091 -1.2,0.35546 -0.1,0.35547 -0.24,0.71093 -0.34,1.04549 -0.21,0.67957 -0.41,1.34868 -0.56,2.02824 v 0 c -0.1,0.33456 -0.17,0.67957 -0.24,1.04549 a 27.07,28.301348 0 0 0 -0.72,7.09886 c 0,0.2091 0,0.40774 0,0.6273 0,0 0,0 0,0 v 0 c 0,0 0,0.0523 0,0.0732 a 26.36,27.559052 0 0 1 7.5,3.13646 14.47,15.128205 0 0 1 6.31,8.12344 6.23,6.5133875 0 0 1 0.2,0.76321 20.08,20.99339 0 0 1 5.71,-1.04549 c 1.77,-0.0627 3.75,0.13591 4.92,1.53687 a 4.44,4.6419648 0 0 1 0.91,1.97597 c 0.68,0.63774 0.8,1.75642 1.27,2.61372 1.46,2.67644 5.26,1.79823 8.12,2.53008 a 5.63,5.886095 0 0 1 0.85,0.29273 v 0 c 2.71,1.04549 5,3.55466 7.88,3.57557 a 20.13,21.045665 0 0 1 3.45,-0.19864 l 0.21,0.0523 c 1.19,0.31365 2.14,2.02825 1.22,2.88555 1.41,-0.33456 2.79,0.65865 3.69,1.85051 0.9,1.19186 1.45,2.61372 2.42,3.73239 a 3.74,3.9101235 0 0 1 3.79,-1.53687 13.74,14.364999 0 0 1 4,1.65187 5.49,5.7397267 0 0 0 1.77,0.64821 7.66,8.0084347 0 0 0 2.13,-0.19865 17.2,17.982386 0 0 1 10.09,1.47414 c 2.76,1.36959 5.43,-1.15003 8.48,-1.34868 a 4.7,4.9137915 0 0 0 3.1,-1.04548 1.34,1.4009533 0 0 0 0.23,-0.26138 4.51,4.7151489 0 0 0 0.44,-0.80502 c 0.2,-0.48093 0.33,-1.04549 0.5,-1.49505 a 12.15,12.702674 0 0 1 8.39,-8.11298 l 0.5,-0.12546 a 8.85,9.2525649 0 0 1 -0.42,-1.84006 c 0,0 0,0 0,0 a 10.39,10.862616 0 0 1 6.51,-11.50036 11,11.500363 0 0 1 3.8,-10.06805 16.84,17.606011 0 0 0 1.82,-1.49505 l 0.1,-0.0836 a 4.64,4.8510623 0 0 0 0.69,-0.9514 c 0,0 0,0 0,0 a 14.07,14.71001 0 0 0 1.06,-2.43598 c 0.89,-2.48826 1.8,-4.97652 2.69,-7.46479 1.2,-0.25091 2.13,-0.77366 3.27,-0.9723 0,-0.25092 0,-0.50183 0,-0.7632 a 23.72,24.798965 0 0 1 1.23,-7.49615 33.1,34.605638 0 0 1 3.89,-8.07116 v 0 c 0.25,-0.4182 0.51,-0.82594 0.78,-1.23368 v 0 c 0.34,-0.55411 0.71,-1.04549 1.07,-1.63096 2.58,-3.7533 5.45,-7.46478 9.27,-9.73349 a 36.14,37.783921 0 0 1 3.95,-1.90279 l 7,-3.00055 a 3.29,3.4396541 0 0 1 1.25,-0.35546 c 1.68,0 2.13,2.41507 1.46,4.0774 a 3.94,4.119221 0 0 1 -0.29,0.56456 c -2.13,3.26192 -6.9,4.18195 -8.23,7.87252 a 4.81,5.0287952 0 0 1 1.83,0.40774 5.3,5.5410841 0 0 1 3.13,3.6383 2.87,3.0005493 0 0 0 0.66,1.63096 c 0.63,0.51229 1.58,0.21955 2.27,0.61684 1.24,0.69002 0.71,2.62417 0.84,4.08786 0.12,1.30686 0.89,2.43598 1.27,3.68011 a 6.2,6.4820229 0 0 1 0.15,2.96919 l -0.06,0.31364 v 0 a 3.43,3.5860223 0 0 1 -0.09,0.46002 9.06,9.4721173 0 0 1 -1.23,2.88554 22.43,23.450286 0 0 1 -4.56,4.83016 c -1.14,0.98275 -2.3,1.97597 -3.52,2.87509 -0.35,0.25091 -0.69,0.49138 -1,0.73184 a 1.18,1.2336753 0 0 1 0.11,0.19864 c 0,0.14637 0.11,0.29274 0.17,0.44956 v 0 c 0,0 0,0 0,0 a 2.2,2.3000726 0 0 1 0.12,1.2964 2,2.0909751 0 0 1 -0.39,0.8573 v 0 a 7.47,7.8097921 0 0 1 -0.88,0.94094 18,18.818776 0 0 0 -5.48,10.35033 6.06,6.3356546 0 0 0 0.08,2.34189 v 0 0 a 18.42,19.257881 0 0 1 0.89,4.74652 7.14,7.4647812 0 0 1 -0.14,1.17094 v 0 a 23.74,24.819875 0 0 1 -1.58,5.40517 c -1.86,4.9347 -3.83,10.03668 -7.54,13.59134 a 42.1,44.015026 0 0 1 -8.46,21.77751 c -3.89,5.22743 -9.1,9.17938 -14.25,13.05814 a 26.68,27.893608 0 0 1 -5.26,3.45011 30.26,31.636454 0 0 1 -5.22,1.47413 268,280.19067 0 0 1 -43.65,5.33199 l -2,0.0732 h -0.1 c 0,0.80503 -0.07,1.61005 -0.1,2.41508 q -0.51,12.05447 -0.47,24.12985 v 0.76321 c 0,0.47047 0,0.93048 0,1.40095 a 11.59,12.117201 0 0 0 0.62,4.63151 12.83,13.413605 0 0 0 2.08,3.13646 c 0.19,0.25092 0.4,0.51229 0.59,0.77367 3,4.18195 3.58,9.75439 3.48,15.1282 v 0.0941 c 0,0.80503 0,1.61006 -0.08,2.40463 a 157.19,164.34019 0 0 1 -2.46,21.42204 c -1.18,6.71203 -0.68,13.9468 -1.6,20.74247 a 32,33.455602 0 0 1 -1.6,6.81658 q -1.81,5.09152 -3.62,10.17259 a 8.54,8.9284638 0 0 0 -0.72,3.00055 4.8,5.0183403 0 0 0 0.07,0.9723 v 0 0 c 0.32,1.8087 1.49,3.41875 2.39,5.04971 a 16.72,17.480552 0 0 1 2.11,9.24211 c 0,0.0836 0,0.16728 0,0.26137 v 0 a 1.44,1.5055021 0 0 1 -0.24,0.75275 c -0.39,0.56457 -1.21,0.51229 -1.86,0.40774 a 74.12,77.491538 0 0 0 -7.85,-0.7632 v 0 h -0.28 c 0.09,0.115 0.19,0.23 0.28,0.35546 v 0 c 0.3,0.42865 0.6,0.88867 0.89,1.3905 v 0 l 0.14,0.25092 a 30,31.364627 0 0 1 1.73,3.70102 33.47,34.992469 0 0 1 2.3,6.63885 5.8,6.0638279 0 0 1 0.23,1.04549 c 0.16,0.69002 0.3,1.38004 0.4,2.09097 a 63.51,66.398915 0 0 1 0.72,10.87307 v 0.64821 c 0,0.23 0,0.44956 0,0.67956 0,0 0,0 0,0.0627 v 0.11501 c 0.08,1.6205 0.16,3.26192 0.25,4.85106 0.29,5.81291 0.63,11.02989 1.19,12.83859 a 10.1,10.559424 0 0 1 0.34,3.55465 v 0.0523 a 27.84,29.106374 0 0 1 -0.64,4.73606 c -0.31,1.65187 -0.72,3.35601 -1.13,5.03925 v 0.16727 c 0,0.6273 -0.06,1.24413 -0.12,1.86097 v 0.0836 a 29.36,30.695515 0 0 1 -1.59,8.08162 c 0,0 0,0.0836 0,0.12546 0,0.41819 0,0.82593 0,1.24413 a 1.34,1.4009533 0 0 1 0,0.2091 v 0 c 0,0.75275 -0.09,1.51595 -0.16,2.2687 -0.22,2.20598 -0.57,4.40151 -1,6.59703 0,0.12546 0,0.24046 0,0.36592 q -3,17.41782 -6.1,34.82519 c -0.12,0.70048 -0.25,1.3905 -0.38,2.09098 q -3.36,18.63059 -7,37.2089 c -0.21,1.04549 -0.4,2.09097 -0.62,3.13646 -0.11,0.49138 -0.21,0.99322 -0.33,1.48459 -0.12,0.49138 -0.28,1.20232 -0.42,1.79824 a 49.45,51.69936 0 0 1 -9.11,18.81878 82.34,86.085446 0 0 0 -9.5,15.91232 c 0,0.15682 0.07,0.30319 0.11,0.46001 v 0 c 0.22,1.10822 0.46,2.20598 0.71,3.30375 l 0.06,0.25091 c 2.66,11.80356 6.21,23.43983 7.44,35.54658 0.09,0.86775 0.16,1.73551 0.24,2.61372 0.36,3.9624 0.71,7.9457 2.2,11.584 0.43,1.04549 0.95,2.0387 1.4,3.07373 a 10.69,11.176262 0 0 1 1.07,3.79512 2.79,2.9169103 0 0 1 0,0.52275 0.57,0.59592791 0 0 1 0,0.13591 0.43,0.44955965 0 0 1 0,0.0523 c 0,0 0,0 0,0 a 7.22,7.5484202 0 0 1 -1,3.70102 l 0.13,0.10455 c 0.27,0.21955 0.53,0.42865 0.78,0.6482 l 0.5,0.43911 c 3.45,2.86463 8.07,3.45011 12.34,4.6106 4.27,1.16049 8.83,3.51284 10.15,7.92479 0.08,0.28228 0.14,0.56457 0.2,0.8573 a 2.76,2.8855457 0 0 1 0.06,0.4182 c 0,0 0,0 0,0 v 0 a 7.28,7.6111495 0 0 1 0.09,1.28595 v 0.0941 a 1.23,1.2859497 0 0 1 0,0.19864 11.39,11.908103 0 0 1 -5,8.72983 c -3.54,2.54053 -8,3.3351 -12.2,3.91012 -4.2,0.57502 -8.64,1.04549 -12.5,3.00055 -3.32,1.72505 -6.13,4.55832 -9.65,5.80245 -0.21,0.0732 -0.42,0.11501 -0.64,0.17774 l 0.19,0.115 c 0.48,0.30319 1,0.59593 1.45,0.86775 l 0.78,0.44956 a 36.56,38.223025 0 0 0 11.65,3.87876 c 4.12,0.59593 9,0.87821 11.13,4.62106 v 0 a 0.71,0.74229617 0 0 1 0.08,0.18819 v 0 a 2.38,2.4882604 0 0 1 0.23,0.57501 v 0.0836 a 1.17,1.2232204 0 0 1 0.09,0.25092 1.43,1.4950472 0 0 1 0.09,0.28228 1.89,1.9759715 0 0 0 0,0.24046 4.28,4.4746868 0 0 1 0.17,0.82594 6.62,6.9211277 0 0 1 -0.07,2.17461 9.32,9.7439441 0 0 1 -2.69,5.09153 c -2.5,2.45689 -6,3.52329 -9.28,4.2865 -7.59,1.74596 -15.35,2.37325 -23.1,3.00055 l -7.53,0.60638 c -2.69,0.21955 -5.39,0.42865 -8.08,0.62729 -1.91,0.12546 -3.82,0.25092 -5.73,0.34501 -1.91,0.0941 -3.64,0.15683 -5.46,0.19865 h -0.08 c -0.92,0 -1.84,0 -2.76,0 v 0 q -7,0 -13.91,-0.61684 c -4.47,-0.4182 -8.89,-1.04549 -13.29,-1.86097 a 3,3.1364627 0 0 1 -2.16,-1.04549 2,2.0909751 0 0 1 -0.13,-0.26137 0.85,0.88866443 0 0 1 -0.06,-0.17773 0.36,0.37637552 0 0 1 0,-0.0941 1.29,1.348679 0 0 1 0,-0.19864 2.54,2.6555384 0 0 1 0,-0.30319 v -0.0941 c 0,-0.21956 0,-0.43911 0,-0.64821 0,-0.99321 0,-1.97597 0.07,-2.96918 0,-0.17773 0,-0.36592 0,-0.54366 v -0.66911 l 0.06,-1.22322 c 0.07,-1.19185 0.14,-2.39416 0.24,-3.58602 l 0.12,-1.42186 c 0,-0.15683 0,-0.31365 0,-0.47047 0,-0.35547 0.06,-0.71093 0.1,-1.04549 0,-0.19864 0,-0.40774 0.07,-0.61684 l 0.18,-1.68323 c 0.14,-1.23368 0.3,-2.4569 0.47,-3.68012 q 0.55,-4.01467 1.35,-7.97707 c 0,0 0,0 0,-0.0732 0,-0.0732 0,0 0,-0.0627 0.19,-0.89912 0.38,-1.78779 0.56,-2.67645 0.63,-2.82282 4.31,1.04549 6.37,3.46056 0.27,-1.34868 0.55,-2.6869 0.89,-3.99376 v 0 c 0,0 0,-0.10455 0,-0.15682 -0.55,-0.26137 -1.09,-0.5332 -1.62,-0.80503 a 5.76,6.0220084 0 0 1 -3,-2.59281 4.31,4.5060514 0 0 1 -0.32,-1.40095 5.87,6.137012 0 0 1 0,-0.87821 c 0,-0.23001 0,-0.46001 0,-0.69002 0.3,-6.2102 0.66,-12.63995 3.48,-18.08694 a 36.8,38.473942 0 0 1 6.87,-8.76118 c 0,-0.66911 0.07,-1.33823 0.1,-2.00734 0.3,-6.6493 0.73,-13.2986 1.33,-19.93745 a 278,290.64554 0 0 1 5.31,-36.03795 c 0.71,-3.20965 1.43,-6.4193 2.32,-9.58712 0,0 0,0 0,0 a 60,62.729254 0 0 1 7.76,-18.1183 c 0.67,-1.04549 1.39,-2.09098 2.12,-3.13647 q 0.32,-5.87564 1,-11.77219 c 0.6,-5.39471 1.4,-10.76852 2.25,-16.09005 0.07,-0.50183 0.16,-1.04549 0.21,-1.53687 v -0.0836 a 4.84,5.0601598 0 0 0 -0.24,-2.09098 11.83,12.368118 0 0 0 -2,-2.81236 11.37,11.887194 0 0 1 -2.11,-7.31841 2.81,2.9378201 0 0 1 0,-0.3032 c 0,-2.77054 0.39,-5.6979 0.57,-8.44754 0,-0.77366 0.07,-1.53686 0.07,-2.31052 v 0 -0.0836 0 c 0,-0.11501 0,-0.23001 0,-0.34501 0,-0.80503 0,-1.5996 -0.05,-2.39417 -0.28,-6.16838 -1.68,-12.29493 -3,-18.31694 -1.43,-6.27293 -2.88,-12.45176 -4.3,-18.68286 v 0 c -0.57,-2.42554 -1.13,-4.86152 -1.67,-7.31842 -0.21,-0.86775 -0.41,-1.72505 -0.6,-2.59281 a 43.88,45.875994 0 0 0 -2.32,-7.91434 c -1.52,-3.58602 -3.89,-6.69112 -5.92,-9.9844 a 53.55,55.985859 0 0 1 -8.35,-29.72321 v 0 a 0.17,0.17773289 0 0 1 0,-0.0732 c 0,0 0,-0.0836 0,-0.12546 a 1.34,1.4009533 0 0 1 0,-0.20909 c 0,-0.71094 0,-1.41141 0,-2.09098 v 0 c 0,-0.54365 0,-1.04549 0.09,-1.65187 -1.24,0.46001 -2.49,0.93048 -3.72,1.43232 a 21.08,22.038878 0 0 1 -0.16,-2.3628 v -0.0836 c -0.1,-4.84061 0.91,-9.98441 1,-14.85638 a 0.66,0.69002179 0 0 0 0,-0.14637 v -0.13591 a 24.61,25.729449 0 0 0 -0.31,-4.77788 18.39,19.226516 0 0 0 -0.51,-2.16416 c -0.35,-0.29274 -0.7,-0.58547 -1,-0.88866 v 0 a 28.73,30.036858 0 0 1 -8.25,-10.68489 c -1.8,-4.18195 -2.32,-8.95983 -4.2,-13.14178 -1.06,-2.35234 -2.56,-4.52696 -3.19,-7.05704 a 10.82,11.312175 0 0 1 -0.33,-2.3628 v -0.12546 a 74.36,77.742455 0 0 1 0.5,-7.88297 v 0 c 0,-0.4182 0,-0.84685 0,-1.26504 -0.1,-7.25569 -4.42,-14.05136 -4.9,-21.12931 v -0.0941 a 16.22,16.957808 0 0 1 0.16,-3.55466 c 0.53,-3.52329 2.32,-6.81658 2.65,-10.32942 0,0 0,0 0,0 v 0 a 8,8.3639005 0 0 0 0.06,-1.34868 19.64,20.533376 0 0 0 -1.57,-6.3461 c -3.49,-9.64986 -6.94,-19.80154 -7.2,-29.97413 a 0.27,0.28228164 0 0 1 0,-0.0941 v -0.21955 a 36.09,37.731646 0 0 1 0.61,-8.31163 c 0.46,-2.66599 1.21,-5.30062 1.41,-7.97707 a 16.36,17.104177 0 0 0 0,-2.09097 c -0.16,-2.93782 -1.19,-5.81291 -1.46,-8.69846 0,0 0,0 0,0 a 11.36,11.876739 0 0 1 0,-2.79145 8.42,8.8030053 0 0 1 0.9,-2.76009 v 0 a 8.37,8.7507309 0 0 1 0.76,-1.25458 45.55,47.621958 0 0 1 -4.07,-8.1548 14.6,15.264118 0 0 1 -1,-3.34556 7.41,7.7470628 0 0 1 -0.04,-2.10143 z m 68.42,461.29002 v 0 l 0.1,-0.0627 a 12.49,13.05814 0 0 1 3.33,-0.99321 c 0.28,0 0.57,-0.0627 0.85,-0.0836 h 0.06 a 16.57,17.323729 0 0 1 -0.33,-2.95873 c 0,-0.58548 0,-1.1814 0,-1.77733 0,-0.27183 0,-0.54366 0,-0.82594 0,-0.115 0,-0.21955 0,-0.33455 0,-0.58548 0.05,-1.1814 0.09,-1.76688 0.04,-0.58547 0.11,-1.27549 0.15,-1.91324 v 0 0 a 2.62,2.7391774 0 0 0 0,-0.29274 c -0.13,0.39729 -0.27,0.79457 -0.43,1.19186 q -1.85,5.03925 -4,9.92168 z m -23.15,-542.98442 v 0 c 0,0 0,0 0,0 z"
       inkscape:connector-curvature="0"
       style="fill:url(#a5464100-bfa1-4039-8123-dc9b79f8f7ac);stroke-width:1.02249086" />
    <path
       id="path8038"
       d="m 350.12022,300.7481 c 0.13,5.30063 1.85,10.45488 2.12,15.74505 -15,0.77366 -29.69,-6.80613 -44.48,-4.48514 4.13,-2.79146 6.34,-7.84116 7.64,-12.80723 a 50.61,52.912126 0 0 0 1.46,-19.67607 7.59,7.9352506 0 0 0 -0.18,-1.04549 c -0.55,-2.59281 -2,-6.27293 -1.59,-8.31163 0.5,-2.69735 2.94,-2.16416 5.13,-2.00733 a 194.12,202.95005 0 0 1 19.94,2.6869 c 1.72,0.31365 18.47,4.68378 18.72,4.23422 -2.76,4.98698 -5.57,10.1726 -7.25,15.60913 a 29.09,30.413233 0 0 0 -1.51,10.05759 z"
       inkscape:connector-curvature="0"
       style="fill:#ee8e9e;stroke-width:1.02249086" />
    <path
       id="path8040"
       d="m 497.91022,284.35486 a 21.66,22.645261 0 0 1 -4.57,4.80924 c -1.13,0.97231 -2.29,1.96552 -3.51,2.85418 a 15,15.682313 0 0 1 -7.47,3.13647 c -3.56,0.25091 -11.12,-1.93416 -13.33,-5.12289 a 8.82,9.2212003 0 0 1 -1.27,-5.33199 23.64,24.715326 0 0 1 1.22,-7.46478 39.71,41.516311 0 0 1 5.77,-10.89398 c 2.57,-3.74285 5.43,-7.42296 9.26,-9.69167 a 35.92,37.553913 0 0 1 3.94,-1.89233 l 7,-2.9901 a 3.51,3.6696613 0 0 1 1.27,-0.34501 c 1.87,0 2.21,3.00055 1.15,4.6106 -2.12,3.25147 -6.89,4.18195 -8.23,7.84116 a 5.34,5.5829036 0 0 1 5,4.01467 2.74,2.8646359 0 0 0 0.67,1.63096 c 0.61,0.51229 1.57,0.21955 2.27,0.60638 1.23,0.69003 0.69,2.61372 0.82,4.07741 0.12,1.2964 0.9,2.41507 1.28,3.6592 a 7.44,7.7784275 0 0 1 -1.27,6.49248 z"
       inkscape:connector-curvature="0"
       style="fill:#ee8e9e;stroke-width:1.02249086" />
    <path
       id="path8042"
       d="m 291.91022,816.29893 c 1.15,-1.20231 3,-0.99321 4.64,-0.73184 a 172.4,180.24206 0 0 0 26.07,2.20598 c 1.09,-5.5829 -2.08,-11.00899 -3.1,-16.60234 a 14,14.636826 0 0 0 -1,-4.18195 c -1.22,-2.46735 -4,-3.59648 -6.6,-4.18195 -4.7,-1.04549 -12,-2.86464 -14.67,2.09097 -3.19,5.96973 -4.2,14.77274 -5.34,21.40113 z"
       inkscape:connector-curvature="0"
       style="fill:#65617d;stroke-width:1.02249086" />
    <path
       id="path8044"
       d="m 387.42022,795.2219 c -3.54,2.53008 -7.94,3.3142 -12.2,3.88922 -4.26,0.57501 -8.64,0.99321 -12.5,2.97964 -3.33,1.71459 -6.13,4.53741 -9.66,5.77109 -3.2,1.11867 -6.7,0.81548 -10,0.16727 -4,-0.77366 -8.18,-2.28961 -10.32,-5.86518 -1.91,-3.13646 -1.7,-7.20341 -1.44,-10.94626 0.31,-4.18195 0.6,-8.46844 0.9,-12.70267 a 5.93,6.1997412 0 0 1 0.75,-3.07373 c 2.87,-4.35969 9.83,1.8296 13.55,1.81915 5.91,0 12.25,-3.34556 16.5,-7.44388 a 5,5.2274378 0 0 1 1.28,-1.04548 c 1.69,-0.79457 3.37,0.66911 4.87,1.9446 0.16,0.14637 0.33,0.28229 0.5,0.4182 3.45,2.86463 8.07,3.43965 12.33,4.60014 4.26,1.1605 8.83,3.49193 10.15,7.88298 a 6,6.2729254 0 0 1 0.2,0.84685 c 0.76,4.10876 -1.6,8.38481 -4.91,10.75806 z"
       inkscape:connector-curvature="0"
       style="fill:#3f3d56;stroke-width:1.02249086" />
    <path
       id="path8046"
       d="m 387.42022,795.2219 c -3.54,2.53008 -7.94,3.3142 -12.2,3.88922 -4.26,0.57501 -8.64,0.99321 -12.5,2.97964 -3.33,1.71459 -6.13,4.53741 -9.66,5.77109 -3.2,1.11867 -6.7,0.81548 -10,0.16727 -4,-0.77366 -8.18,-2.28961 -10.32,-5.86518 -1.91,-3.13646 -1.7,-7.20341 -1.44,-10.94626 0.31,-4.18195 0.6,-8.46844 0.9,-12.70267 a 5.93,6.1997412 0 0 1 0.75,-3.07373 c 2.87,-4.35969 9.83,1.8296 13.55,1.81915 5.91,0 12.25,-3.34556 16.5,-7.44388 a 5,5.2274378 0 0 1 1.28,-1.04548 c 1.69,-0.79457 3.37,0.66911 4.87,1.9446 0.16,0.14637 0.33,0.28229 0.5,0.4182 3.45,2.86463 8.07,3.43965 12.33,4.60014 4.26,1.1605 8.83,3.49193 10.15,7.88298 a 6,6.2729254 0 0 1 0.2,0.84685 c 0.76,4.10876 -1.6,8.38481 -4.91,10.75806 z"
       inkscape:connector-curvature="0"
       style="opacity:0.05;stroke-width:1.02249086" />
    <path
       id="path8048"
       d="m 387.42022,796.64377 c -3.54,2.53008 -7.94,3.31419 -12.2,3.88921 -4.26,0.57502 -8.64,0.99321 -12.5,2.97964 -3.33,1.72505 -6.13,4.53741 -9.66,5.77109 -3.2,1.11867 -6.7,0.81548 -10,0.16728 a 16.56,17.313274 0 0 1 -10.32,-7.31842 c -1.91,-3.13646 -1.7,-7.2034 -1.44,-10.94625 0.31,-4.18195 0.6,-8.46845 0.9,-12.70267 a 5.93,6.1997412 0 0 1 0.75,-3.07374 c 2.87,-4.35968 9.83,1.82961 13.55,1.81915 5.91,0 12.25,-3.34556 16.5,-7.44387 a 5,5.2274378 0 0 1 1.28,-1.04549 c 1.69,-0.79457 3.37,0.66911 4.87,1.94461 a 35,36.592065 0 0 1 -4.15,8.94937 c -3,4.58969 -7.72,8.10253 -13,8.51027 -2.64,0.19864 -5.35,-0.34501 -7.9,0.36592 -2.55,0.71093 -4.93,3.43966 -4,6.03247 0.93,2.5928 4,3.13646 6.58,3.23055 3.61,0.19864 7.31,0.38683 10.73,-0.78411 2.09,-0.73185 4,-1.93416 6,-2.82282 8.65,-3.7533 19.58,-1.65187 26.73,-7.98753 a 15.19,15.880956 0 0 1 2.18,-1.74596 c 1.87,4.14013 -1.59,9.83804 -4.9,12.2113 z"
       inkscape:connector-curvature="0"
       style="fill:#e8eaf2;stroke-width:1.02249086" />
    <path
       id="path8050"
       d="m 387.42022,796.64377 c -3.54,2.53008 -7.94,3.31419 -12.2,3.88921 -4.26,0.57502 -8.64,0.99321 -12.5,2.97964 -3.33,1.72505 -6.13,4.53741 -9.66,5.77109 -3.2,1.11867 -6.7,0.81548 -10,0.16728 a 16.56,17.313274 0 0 1 -10.32,-7.31842 c -1.91,-3.13646 -1.7,-7.2034 -1.44,-10.94625 0.31,-4.18195 0.6,-8.46845 0.9,-12.70267 a 5.93,6.1997412 0 0 1 0.75,-3.07374 c 2.87,-4.35968 9.83,1.82961 13.55,1.81915 5.91,0 12.25,-3.34556 16.5,-7.44387 a 5,5.2274378 0 0 1 1.28,-1.04549 c 1.69,-0.79457 3.37,0.66911 4.87,1.94461 a 35,36.592065 0 0 1 -4.15,8.94937 c -3,4.58969 -7.72,8.10253 -13,8.51027 -2.64,0.19864 -5.35,-0.34501 -7.9,0.36592 -2.55,0.71093 -4.93,3.43966 -4,6.03247 0.93,2.5928 4,3.13646 6.58,3.23055 3.61,0.19864 7.31,0.38683 10.73,-0.78411 2.09,-0.73185 4,-1.93416 6,-2.82282 8.65,-3.7533 19.58,-1.65187 26.73,-7.98753 a 15.19,15.880956 0 0 1 2.18,-1.74596 c 1.87,4.14013 -1.59,9.83804 -4.9,12.2113 z"
       inkscape:connector-curvature="0"
       style="opacity:0.05;stroke-width:1.02249086" />
    <path
       id="path8052"
       d="m 293.52022,519.80911 a 53.18,55.599029 0 0 0 7.3,41.04585 c 2,3.28283 4.4,6.36701 5.92,9.93213 a 43.83,45.82372 0 0 1 2.32,7.88297 l 6.56,28.42681 c 1.78,7.67388 3.56,15.49413 3,23.36665 -0.37,5.48881 -1.69,11.65718 1.54,15.99596 a 11.25,11.761735 0 0 1 2,2.8019 6.85,7.1615898 0 0 1 0,3.70103 c -3.32,20.63792 -5.79,42.20633 0.21,62.17514 5.44,18.09739 5.76,38.14985 10.38,56.45633 0.57,2.27917 1.23,4.67333 2.88,6.27293 a 9.39,9.8171282 0 0 0 4.3,2.09097 c 6.82,1.70415 14,-0.29273 20.38,-3.36647 4.47,-2.16416 9.28,-5.95928 8.9,-11.09262 -0.19,-2.44644 -1.55,-4.58969 -2.48,-6.83749 -1.81,-4.41196 -2,-9.3362 -2.45,-14.11408 -1.23,-12.0022 -4.77,-23.57574 -7.44,-35.31657 -2.67,-11.74083 -4.49,-23.99394 -2.23,-35.82886 a 299.55,313.1758 0 0 1 22,-70.90497 8.07,8.4370846 0 0 1 2,-3.13646 c 0.9,-0.77366 2.09,-1.12912 2.86,-2.09097 0.77,-0.96185 1,-2.42553 1.3,-3.71148 1,-3.74285 3.95,-6.50294 5.93,-9.79622 5,-8.30117 3.42,-18.94424 3.23,-28.75091 -0.18,-9.5453 1.13,-19.17424 -0.36,-28.58363 -1.49,-9.40939 -6.65,-19.02787 -15.33,-21.95524 -4.3,-1.45323 -8.95,-1.12913 -13.45,-0.65866 -23.74,2.47781 -46.88,7.04659 -69.27,15.99596 z"
       inkscape:connector-curvature="0"
       style="fill:#303d5c;stroke-width:1.02249086" />
    <path
       id="path8054"
       d="m 293.52022,519.80911 a 53.18,55.599029 0 0 0 7.3,41.04585 c 2,3.28283 4.4,6.36701 5.92,9.93213 a 43.83,45.82372 0 0 1 2.32,7.88297 l 6.56,28.42681 c 1.78,7.67388 3.56,15.49413 3,23.36665 -0.37,5.48881 -1.69,11.65718 1.54,15.99596 a 11.25,11.761735 0 0 1 2,2.8019 6.85,7.1615898 0 0 1 0,3.70103 c -3.32,20.63792 -5.79,42.20633 0.21,62.17514 5.44,18.09739 5.76,38.14985 10.38,56.45633 0.57,2.27917 1.23,4.67333 2.88,6.27293 a 9.39,9.8171282 0 0 0 4.3,2.09097 c 6.82,1.70415 14,-0.29273 20.38,-3.36647 4.47,-2.16416 9.28,-5.95928 8.9,-11.09262 -0.19,-2.44644 -1.55,-4.58969 -2.48,-6.83749 -1.81,-4.41196 -2,-9.3362 -2.45,-14.11408 -1.23,-12.0022 -4.77,-23.57574 -7.44,-35.31657 -2.67,-11.74083 -4.49,-23.99394 -2.23,-35.82886 a 299.55,313.1758 0 0 1 22,-70.90497 8.07,8.4370846 0 0 1 2,-3.13646 c 0.9,-0.77366 2.09,-1.12912 2.86,-2.09097 0.77,-0.96185 1,-2.42553 1.3,-3.71148 1,-3.74285 3.95,-6.50294 5.93,-9.79622 5,-8.30117 3.42,-18.94424 3.23,-28.75091 -0.18,-9.5453 1.13,-19.17424 -0.36,-28.58363 -1.49,-9.40939 -6.65,-19.02787 -15.33,-21.95524 -4.3,-1.45323 -8.95,-1.12913 -13.45,-0.65866 -23.74,2.47781 -46.88,7.04659 -69.27,15.99596 z"
       inkscape:connector-curvature="0"
       style="opacity:0.05;stroke-width:1.02249086" />
    <path
       id="path8056"
       d="m 390.60022,579.64237 a 57.7,60.324632 0 0 1 -1.2,11.01944 q -6.3,36.95798 -13.43,73.74869 c -0.42,2.09097 -0.83,4.25513 -1.38,6.34611 a 49.31,51.552992 0 0 1 -9.1,18.71423 c -19.8,25.80263 -21.51,63.28336 -32.26,94.40752 -0.72,2.09098 -1.45,4.18195 -2.22,6.27293 a 147.28,153.97941 0 0 1 -6.63,15.46276 4.2,4.3910478 0 0 1 -1.36,1.85051 4.09,4.2760441 0 0 1 -2.16,0.43911 63,65.865716 0 0 1 -27.95,-6.61794 5.81,6.0742827 0 0 1 -3,-2.5719 6.05,6.3251998 0 0 1 -0.31,-2.96918 c 0.3,-6.16838 0.66,-12.54585 3.47,-17.98239 a 36.9,38.578491 0 0 1 6.88,-8.71937 c 0.84,-19.36243 2.67,-38.76668 6.74,-57.67955 2.09,-9.67076 4.68,-19.44606 10,-27.62178 4,-6.03246 9.64,-11.98128 8.94,-19.26833 -0.31,-3.13647 -1.59,-7.17205 0.9,-9.05392 1.09,-0.82594 2.7,-0.93049 3.43,-2.09098 a 3.79,3.9623979 0 0 0 0.48,-1.79824 42.66,44.600499 0 0 0 -0.88,-14.94002 c -0.72,-3.24101 -1.8,-6.41929 -2.13,-9.73349 -0.33,-3.31419 0.23,-6.92112 2.34,-9.40938 0.13,-6.6493 0,-13.59134 0.09,-20.17791 0.06,-3.79512 0.13,-7.64252 -0.89,-11.27036 -0.49,-1.74596 -1.22,-3.40829 -1.59,-5.22744 -1.33,-6.37747 2,-14.03044 -2,-19.0906 -1.65,-2.09097 -4.19,-3.13646 -6.34,-4.66287 -4.31,-3.01101 -7.13,-7.9248 -8.7,-13.07905 -1.57,-5.15426 -2,-10.6117 -2.47,-16.01687 a 15.94,16.665072 0 0 1 0,-3.46057 5.93,6.1997412 0 0 1 0.44,-1.72505 c 1.23,-2.88555 4.53,-4.00422 7.47,-4.74651 a 241.41,252.39115 0 0 1 57,-6.96295 c 7.1,-5.06016 11.1,-3.25147 14.11,2.09097 a 53.21,55.630393 0 0 1 4,10.25624 c 1.38,4.33877 1.46,28.65681 2.8,33.01649 1.87,5.70837 -3.16,17.29237 -3.09,23.25165 z"
       inkscape:connector-curvature="0"
       style="fill:#303d5c;stroke-width:1.02249086" />
    <path
       id="path8058"
       d="m 262.21022,358.39629 c -0.53,3.82648 1.23,7.59024 1.43,11.44809 0.17,3.36647 -0.86,6.65975 -1.45,9.9844 -2.29,12.96405 2.11,26.08492 6.6,38.40076 a 18.9,19.759715 0 0 1 1.56,6.27293 c 0.12,4.02512 -2.09,7.70524 -2.7,11.67809 -1.27,8.3639 4.61,16.19461 4.74,24.6526 0,3.88921 -1.12,7.85161 -0.19,11.61537 0.62,2.51962 2.12,4.67333 3.19,7.02567 1.89,4.18195 2.39,8.87619 4.2,13.0686 3.25,7.59024 10.25,12.54585 16.9,17.09372 3.79,-1.31731 7.89,-2.88555 10,-6.45066 a 15.19,15.880956 0 0 0 1.73,-5.65609 c 1.44,-8.64618 1.39,-17.47009 1.34,-26.24173 a 155.85,162.93924 0 0 0 -1.18,-22.4989 c -1.34,-9.53484 -4.3,-18.72468 -6.42,-28.1027 -2.68,-11.82447 -4,-24.04622 -8.22,-35.38976 -3.66,-9.97395 -9.37,-18.92332 -15.38,-27.48586 -2.29,-3.27238 -4.1,-7.94571 -8.55,-7.19296 a 9.32,9.7439441 0 0 0 -7.6,7.77843 z"
       inkscape:connector-curvature="0"
       style="fill:#2f7dfe;stroke-width:1.02249086" />
    <path
       id="path8060"
       d="m 262.21022,358.39629 c -0.53,3.82648 1.23,7.59024 1.43,11.44809 0.17,3.36647 -0.86,6.65975 -1.45,9.9844 -2.29,12.96405 2.11,26.08492 6.6,38.40076 a 18.9,19.759715 0 0 1 1.56,6.27293 c 0.12,4.02512 -2.09,7.70524 -2.7,11.67809 -1.27,8.3639 4.61,16.19461 4.74,24.6526 0,3.88921 -1.12,7.85161 -0.19,11.61537 0.62,2.51962 2.12,4.67333 3.19,7.02567 1.89,4.18195 2.39,8.87619 4.2,13.0686 3.25,7.59024 10.25,12.54585 16.9,17.09372 3.79,-1.31731 7.89,-2.88555 10,-6.45066 a 15.19,15.880956 0 0 0 1.73,-5.65609 c 1.44,-8.64618 1.39,-17.47009 1.34,-26.24173 a 155.85,162.93924 0 0 0 -1.18,-22.4989 c -1.34,-9.53484 -4.3,-18.72468 -6.42,-28.1027 -2.68,-11.82447 -4,-24.04622 -8.22,-35.38976 -3.66,-9.97395 -9.37,-18.92332 -15.38,-27.48586 -2.29,-3.27238 -4.1,-7.94571 -8.55,-7.19296 a 9.32,9.7439441 0 0 0 -7.6,7.77843 z"
       inkscape:connector-curvature="0"
       style="opacity:0.05;stroke-width:1.02249086" />
    <path
       id="path8062"
       d="m 358.91022,275.03957 c -2.76,4.98697 -5.57,10.17259 -7.25,15.60912 a 34.41,35.975227 0 0 1 -8.23,1.04549 c -10.77,0 -18.4,-6.40884 -24.73,-14.50091 -0.55,-2.60326 -4,-5.01834 -3.58,-7.0675 0.5,-2.69735 2.94,-2.16416 5.13,-2.00733 a 194.12,202.95005 0 0 1 19.94,2.6869 c 1.72,0.31365 18.44,4.68378 18.72,4.23423 z"
       inkscape:connector-curvature="0"
       style="opacity:0.1;stroke-width:1.02249086" />
    <ellipse
       id="circle8064"
       cy="254.63165"
       cx="-343.40024"
       style="fill:#ee8e9e;stroke-width:1.02249086"
       transform="scale(-1,1)"
       rx="34.509998"
       ry="36.079773" />
    <path
       id="path8066"
       d="m 387.01022,513.14936 c -6,-0.36592 -12,-0.11501 -18,0.13591 a 60.54,63.293817 0 0 0 -11.16,1.20231 c -4.53,1.04549 -8.77,3.23056 -13.24,4.57924 -7.16,2.18507 -14.72,2.27916 -22.13,3.04237 a 126.53,132.28554 0 0 0 -14.49,2.37325 5.93,6.1997412 0 0 1 0.44,-1.72505 c 1.23,-2.88555 4.53,-4.00422 7.47,-4.74652 a 241.41,252.39115 0 0 1 57,-6.96294 c 7.1,-5.06016 11.1,-3.25147 14.11,2.10143 z"
       inkscape:connector-curvature="0"
       style="opacity:0.1;stroke-width:1.02249086" />
    <path
       id="path8068"
       d="m 363.49022,313.7017 c -1.51,1.81914 -3.53,3.82648 -5.76,3.24101 a 8.09,8.4579944 0 0 1 -2.24,-1.25459 c -4,-2.6869 -8.86,-3.31419 -13.54,-4.04604 a 200,209.09751 0 0 1 -27.89,-6.5552 28.38,29.670937 0 0 0 -8.25,-1.75642 c -5.85,0 -11,4.09831 -14.7,8.86573 -3.7,4.76743 -6.26,10.33988 -9.86,15.15957 -2.56,3.43966 -5.61,6.47157 -8,10.03668 -6,9.00165 -7.34,20.75293 -5.78,31.63646 1.56,10.88352 5.72,21.1293 9.84,31.26008 2.36,5.80245 4.74,11.63627 8,16.92644 -1.39,8.26981 -0.66,17.72101 3.1,25.0917 1.23,2.41508 2.73,4.76742 3.13,7.47524 a 17.75,18.557404 0 0 1 -0.21,5.47835 l -1.76,13.05814 c -0.53,3.98331 -1.07,7.95616 -1.76,11.9081 -1.27,7.23478 -3,15.08639 0.21,21.63114 3.84,7.8307 -0.19,17.87784 0.82,26.61812 a 128.07,133.89559 0 0 1 33.63,-8.36391 c 7.42,-0.7632 15,-0.8573 22.13,-3.03191 4.47,-1.35913 8.7,-3.51284 13.24,-4.60014 a 61.33,64.119752 0 0 1 11.17,-1.19186 c 8.27,-0.34501 16.6,-0.69002 24.78,0.58547 0.67,0.10455 1.47,0.15683 1.87,-0.40774 a 1.79,1.8714227 0 0 0 0.25,-1.04548 16.45,17.19827 0 0 0 -2.12,-9.17939 c -1,-1.92369 -2.49,-3.81603 -2.45,-6.022 a 8.66,9.0539223 0 0 1 0.72,-2.9901 l 3.62,-10.12032 c 3.07,-8.53118 1.61,-18.45285 3.2,-27.41268 a 154,161.00508 0 0 0 2.38,-21.21294 c 0.3,-6.08474 0.11,-12.68177 -3.4,-17.54329 a 19,19.864264 0 0 1 -2.65,-3.85785 11.09,11.594457 0 0 1 -0.63,-4.6106 q -0.12,-18.25421 1,-36.49797 c -3.07,-5.75018 -6.26,-11.63627 -9.32,-17.38645 -3.56,-6.69112 -7.18,-13.51816 -8.62,-21.02476 -1,-4.97652 -0.92,-10.08895 -1.6,-15.10729 a 6.25,6.5342973 0 0 0 -1.22,-3.53375 c -1.17,-1.38005 -3.14,-1.57869 -4.91,-1.52641 a 21.54,22.519802 0 0 0 -6.42,1.30686 z"
       inkscape:connector-curvature="0"
       style="fill:#2f7dfe;stroke-width:1.02249086" />
    <path
       id="path8070"
       d="m 489.84022,292.01828 a 15,15.682313 0 0 1 -7.47,3.13647 c -3.56,0.25091 -11.12,-1.93416 -13.33,-5.12289 a 8.82,9.2212003 0 0 1 -1.27,-5.33199 6.17,6.4506583 0 0 1 1.48,-0.30319 c 3.87,-0.24046 7.82,-0.48093 11.58,0.49138 3.76,0.9723 7.4,3.35601 9,7.05704 z"
       inkscape:connector-curvature="0"
       style="opacity:0.1;stroke-width:1.02249086" />
    <path
       id="path8072"
       d="m 375.01022,370.06393 c 2.11,2.72872 4.29,5.55154 7.27,7.16159 3.43,1.86097 7.47,1.90279 11.33,1.81915 a 270.92,283.24349 0 0 0 47.35,-5.43654 29.25,30.580511 0 0 0 5.21,-1.46368 27.75,29.01228 0 0 0 5.27,-3.4292 c 5.13,-3.85785 10.34,-7.78888 14.25,-12.99541 a 41.83,43.732745 0 0 0 8.44,-21.65205 c 3.72,-3.57556 5.69,-8.66709 7.55,-13.59134 a 20.08,20.99339 0 0 0 1.72,-6.59702 c 0.1,-2.33144 -1.38,-4.77788 -1,-7.07795 a 17.9,18.714227 0 0 1 5.47,-10.29806 3.57,3.7323906 0 0 0 1.31,-1.80869 2.8,2.9273652 0 0 0 -0.32,-1.76687 c -1.58,-3.70103 -5.22,-6.08474 -9,-7.05704 -3.78,-0.97231 -7.71,-0.72139 -11.58,-0.48093 -1.4,0.0941 -2.42,0.77366 -3.79,1.04549 l -2.7,7.43342 a 9.22,9.6393953 0 0 1 -1.77,3.38738 17.52,18.316942 0 0 1 -1.91,1.56823 11,11.500363 0 0 0 -3.8,10.01577 10.29,10.758067 0 0 0 -6.09,13.27769 12.14,12.692219 0 0 0 -8.9,8.19662 5.88,6.1474669 0 0 1 -1.16,2.55099 4.76,4.9765208 0 0 1 -3.11,1.04549 c -3,0.19864 -5.71,2.70781 -8.48,1.34868 a 17.19,17.971931 0 0 0 -10.03,-1.47414 7.43,7.7679726 0 0 1 -2.15,0.19864 5.84,6.1056474 0 0 1 -1.76,-0.63774 14.45,15.107295 0 0 0 -4,-1.65187 3.74,3.9101235 0 0 0 -3.79,1.53686 c -1,-1.10821 -1.55,-2.53008 -2.43,-3.71148 a 3.88,4.0564917 0 0 0 -3.68,-1.84006 c 0.92,-0.8573 0,-2.56144 -1.21,-2.87509 -1.21,-0.31364 -2.45,0.14637 -3.68,0.14637 -3.19,0 -5.64,-3.05282 -8.74,-3.84739 -2.85,-0.72139 -6.65,0.14637 -8.11,-2.51963 -0.52,-0.94094 -0.62,-2.21643 -1.5,-2.79145 a 2.87,3.0005493 0 0 0 -1.92,-0.24046 18.93,19.79108 0 0 0 -5.83,1.85051 c -3,12.22175 -1.42,24.91397 0.86,37.303 1.09,5.88609 2.81,10.65352 6.41,15.35821 z"
       inkscape:connector-curvature="0"
       style="fill:#2f7dfe;stroke-width:1.02249086" />
    <path
       id="path8074"
       d="m 374.91022,413.8594 -14.86,31.36463 c 1.61,-2.896 5,-4.02513 7.67,-5.87564 a 20.32,21.244307 0 0 0 7.33,-10.29805 60.47,63.220633 0 0 0 2.86,-12.73404 c 0.3,-1.98643 0.93,-4.77788 0,-6.57612 -1.73,0.36592 -2.29,2.64509 -3,4.11922 z"
       inkscape:connector-curvature="0"
       style="opacity:0.1;stroke-width:1.02249086" />
    <path
       id="path8076"
       d="m 332.16022,440.42524 c -3.35,3.47102 -7.46,6.02201 -11.15,9.09574 -8.62,7.17205 -14.76,17.02054 -20.76,26.68085 a 40.4,42.237698 0 0 0 -4.24,8.13389 c 0.7,0.63775 1.75,0 2.44,-0.65866 l 11.68,-10.7267 a 26.35,27.548597 0 0 0 3.89,-4.11922 c 2,-2.84373 2.92,-6.40884 4.76,-9.40939 1.84,-3.00055 4.52,-5.22744 7.09,-7.55887 2.57,-2.33144 15,-13.28815 12,-17.51192 -2.17,1.12913 -3.96,4.26559 -5.71,6.07428 z"
       inkscape:connector-curvature="0"
       style="opacity:0.1;stroke-width:1.02249086" />
    <path
       id="path8078"
       d="m 357.66022,304.64777 c -3.7,-2.41507 -8.06,-3.4292 -12.35,-4.25513 a 26,27.182677 0 0 0 -7.86,-0.58547 c -2.43,0.31364 -4.76,1.2964 -7.21,1.43231 -3.43,0.2091 -6.72,-1.25458 -10,-2.19552 -3.28,-0.94094 -7.15,-1.31731 -9.94,0.78412 a 4.31,4.5060514 0 0 1 -2.16,1.20231 3.76,3.9310332 0 0 1 -2.23,-1.15004 12.74,13.319512 0 0 0 -15.87,0.87821 c -6.33,6.19974 -5.62,18.31694 -13,23.00073 -2.05,1.2964 -4.66,1.98642 -5.85,4.18195 a 13.88,14.511367 0 0 1 -1,1.99688 5.14,5.3738061 0 0 1 -1.78,1.32777 34.92,36.508426 0 0 0 -6.12,3.66966 8.76,9.1584711 0 0 0 -3.52,6.16837 11,11.500363 0 0 0 1.09,5.22744 46.52,48.636081 0 0 0 45.22,30.2355 c 1.69,-0.0836 3.52,-0.3241 4.74,-1.54732 a 8.92,9.3257491 0 0 0 1.66,-2.85418 c 3.48,-7.64251 10,-13.28815 14.19,-20.55429 2.48,-4.32831 4.07,-9.16892 6.65,-13.43451 3.84,-6.48202 9.79,-11.30172 15.59,-15.89141 3.28,-2.61372 6.93,-5.3529 11.06,-5.17517 3.67,0.16728 6.35,0.37638 5,-4.33877 a 14.41,15.065476 0 0 0 -6.31,-8.12344 z"
       inkscape:connector-curvature="0"
       style="fill:#2f7dfe;stroke-width:1.02249086" />
    <path
       id="path8080"
       d="m 357.66022,304.64777 c -3.7,-2.41507 -8.06,-3.4292 -12.35,-4.25513 a 26,27.182677 0 0 0 -7.86,-0.58547 c -2.43,0.31364 -4.76,1.2964 -7.21,1.43231 -3.43,0.2091 -6.72,-1.25458 -10,-2.19552 -3.28,-0.94094 -7.15,-1.31731 -9.94,0.78412 a 4.31,4.5060514 0 0 1 -2.16,1.20231 3.76,3.9310332 0 0 1 -2.23,-1.15004 12.74,13.319512 0 0 0 -15.87,0.87821 c -6.33,6.19974 -5.62,18.31694 -13,23.00073 -2.05,1.2964 -4.66,1.98642 -5.85,4.18195 a 13.88,14.511367 0 0 1 -1,1.99688 5.14,5.3738061 0 0 1 -1.78,1.32777 34.92,36.508426 0 0 0 -6.12,3.66966 8.76,9.1584711 0 0 0 -3.52,6.16837 11,11.500363 0 0 0 1.09,5.22744 46.52,48.636081 0 0 0 45.22,30.2355 c 1.69,-0.0836 3.52,-0.3241 4.74,-1.54732 a 8.92,9.3257491 0 0 0 1.66,-2.85418 c 3.48,-7.64251 10,-13.28815 14.19,-20.55429 2.48,-4.32831 4.07,-9.16892 6.65,-13.43451 3.84,-6.48202 9.79,-11.30172 15.59,-15.89141 3.28,-2.61372 6.93,-5.3529 11.06,-5.17517 3.67,0.16728 6.35,0.37638 5,-4.33877 a 14.41,15.065476 0 0 0 -6.31,-8.12344 z"
       inkscape:connector-curvature="0"
       style="opacity:0.05;stroke-width:1.02249086" />
    <path
       id="path8082"
       d="m 375.62022,827.62156 c -2.5,2.43599 -5.94,3.50238 -9.27,4.26559 -7.59,1.73551 -15.35,2.35235 -23.09,2.97964 l -7.54,0.60638 c -7.36,0.57502 -14.73,1.17095 -22.12,1.20231 a 152.17,159.09184 0 0 1 -27.2,-2.45689 2.3,2.4046214 0 0 1 -2.49,-2.88555 131.44,137.41889 0 0 1 3.34,-28.55226 c 0.86,-3.8474 7.46,4.77788 7.75,5.1438 1.83,2.17461 3.22,3.13646 6,3.32465 7.59,0.4391 16.1,-4.39105 22.13,-8.67755 a 27.65,28.907731 0 0 1 4.1,-2.65554 11.81,12.347208 0 0 1 3.31,-1.04549 20.05,20.962026 0 0 1 11.3,2.39417 c 4.53,2.35235 8.51,5.72927 13,8.14435 a 36.27,37.919834 0 0 0 11.65,3.85785 c 4.11,0.59593 9,0.87821 11.13,4.60014 1.75,3.11556 0.49,7.29751 -2,9.7544 z"
       inkscape:connector-curvature="0"
       style="fill:#3f3d56;stroke-width:1.02249086" />
    <path
       id="path8084"
       d="m 375.62022,829.04342 c -2.5,2.43599 -5.94,3.50239 -9.27,4.26559 -7.59,1.73551 -15.35,2.35235 -23.09,2.97964 l -7.54,0.60639 c -7.36,0.57501 -14.73,1.17094 -22.12,1.20231 a 152.17,159.09184 0 0 1 -27.2,-2.4569 3,3.1364627 0 0 1 -2.16,-1.04549 c -0.32,-0.52274 -1.69,-2.60326 -1.68,-3.2201 0.15,-9.60803 2.64,-19.19515 4.7,-28.55226 0.86,-3.8474 7.46,4.77787 7.75,5.1438 1.83,2.17461 3.22,3.13646 6,3.32465 7.59,0.4391 16.1,-4.39105 22.13,-8.67755 a 27.65,28.907731 0 0 1 4.1,-2.65554 11.81,12.347208 0 0 1 3.31,-1.04549 c -1,5.70837 -8.81,12.60858 -12.85,14.71001 -8.18,4.24468 -17.9,2.09098 -27,2.62418 a 3.71,3.8787589 0 0 0 -1.91,0.49138 c -1.1,0.75275 -1.16,2.37325 -1.13,3.74284 0.08,2.27916 0.36,4.94516 2.24,6.10565 a 6.38,6.6702107 0 0 0 3,0.65866 427.54,446.98775 0 0 0 67.4,-2.46735 37.25,38.944412 0 0 0 11,-2.55099 28.15,29.430475 0 0 0 6.37,-4.2865 c 2.84,2.37325 0.44,8.66709 -2.05,11.10307 z"
       inkscape:connector-curvature="0"
       style="fill:#e8eaf2;stroke-width:1.02249086" />
    <path
       id="path8086"
       d="m 356.83022,254.24482 c -0.13,3.73239 2.3,10.96716 -4.37,8.94937 -4,-1.21276 -5.1,-6.13701 -10.15,-5.03925 -5.05,1.09776 -6.21,7.6007 -7.92,11.85583 a 21.69,22.676625 0 0 1 -15.72,13.28815 9.45,9.8798575 0 0 1 -4.33,0 c -3.26,-0.97231 -5.12,-4.48514 -6.45,-7.73661 a 59.18,61.871954 0 0 1 -2.85,-8.48936 34.57,36.142505 0 0 1 -1,-6.27293 v 0 a 27,28.228164 0 0 1 0,-4.3074 c 0.61,-8.47891 5.22,-16.21552 11.14,-22.07025 5.92,-5.85473 13.09,-10.06804 20.18,-14.23954 a 29.38,30.716425 0 0 1 7.45,-3.47102 24.94,26.07446 0 0 1 7.86,-0.33455 27.12,28.353623 0 0 1 10,2.45689 14.15,14.793649 0 0 1 3.52,2.58236 10.54,11.019439 0 0 1 3,5.32153 c 1.28,5.48881 -2.06,10.45488 -4.78,14.75183 -2.41,3.8683 -5.4,7.95616 -5.58,12.75495 z"
       inkscape:connector-curvature="0"
       style="fill:#3f3d56;stroke-width:1.02249086" />
    <path
       id="path8088"
       d="m 469.14022,334.31871 c -1.43,-3.7533 -7.43,-14.14545 -5.69,-17.72101 a 45.2,47.256038 0 0 1 4.56,8.52072 c 1.13,2.90645 0.21,6.80612 1.13,9.20029 z"
       inkscape:connector-curvature="0"
       style="opacity:0.1;stroke-width:1.02249086" />
    <path
       id="path8090"
       d="m 362.56022,241.51078 c 2.72,-4.33877 6.07,-9.27348 4.79,-14.75183 a 11.11,11.615367 0 0 0 -3.88,-6.07428 9.66,10.09941 0 0 1 1,2.56144 c 1.28,5.47836 -2.07,10.45488 -4.79,14.75183 -2.41,3.8474 -5.4,7.93525 -5.58,12.73404 -0.13,3.72194 2.31,10.96716 -4.37,8.94937 -4,-1.20231 -5.1,-6.13701 -10.15,-5.02879 -5.05,1.10821 -6.2,7.59024 -7.91,11.84537 a 21.73,22.718445 0 0 1 -15.76,13.28815 9.45,9.8798575 0 0 1 -4.33,0 6.47,6.7643045 0 0 1 -2,-1.04549 8.78,9.1793808 0 0 0 4.94,4.55833 9.45,9.8798575 0 0 0 4.33,0 21.73,22.718445 0 0 0 15.7,-13.28815 c 1.71,-4.25513 2.82,-10.73716 7.91,-11.85583 5.09,-1.11867 6.17,3.83694 10.15,5.03925 6.68,2.01779 4.24,-5.22744 4.37,-8.94937 0.17,-4.79879 3.17,-8.88665 5.58,-12.73404 z"
       inkscape:connector-curvature="0"
       style="opacity:0.1;stroke-width:1.02249086" />
    <path
       id="path8092"
       d="m 364.04022,234.09827 a 31.13,32.546028 0 0 1 -2,3.05283 35.77,37.39709 0 0 1 -4.72,5.11243 c -1,0.93048 -2.09,1.79824 -3.19,2.61372 a 51.2,53.528963 0 0 1 -6.44,4.02513 c -6.53,3.43965 -13.59,5.59335 -20.62,7.71569 l -13.78,4.18195 c -1.69,1.33823 -4.79,3.7533 -8.21,6.27293 a 34.57,36.142505 0 0 1 -1,-6.27293 v 0 a 27,28.228164 0 0 1 0,-4.3074 c 0.61,-8.47891 5.22,-16.21552 11.14,-22.07025 5.92,-5.85473 13.09,-10.06804 20.18,-14.23954 a 29.38,30.716425 0 0 1 7.45,-3.47102 24.94,26.07446 0 0 1 7.86,-0.33455 27.12,28.353623 0 0 1 10,2.45689 14.15,14.793649 0 0 1 3.52,2.58236 13.14,13.737707 0 0 1 1.77,3.91012 c 0.78,2.96919 -0.42,6.14747 -1.96,8.77164 z"
       inkscape:connector-curvature="0"
       style="opacity:0.1;stroke-width:1.02249086" />
    <path
       id="path8094"
       d="m 364.04022,233.12597 a 31.13,32.546028 0 0 1 -2,3.05282 35.77,37.39709 0 0 1 -4.72,5.11244 c -1,0.93048 -2.09,1.79824 -3.19,2.61372 a 51.2,53.528963 0 0 1 -6.44,4.02512 c -6.53,3.43966 -13.59,5.59336 -20.62,7.72616 l -13.78,4.18195 c -4.81,3.80557 -20.9,16.26778 -23.61,14.71001 -3.19,-1.82961 14.28,-14.76229 14.28,-14.76229 l 0.81,0.63775 c -2.56,-1.68324 -3.9,-5.5829 -4.48,-8.94937 -1,-6.03247 -1.5,-12.30539 -0.13,-18.26467 1.37,-5.95928 4.79,-11.63628 10,-14.42773 2.32,-1.24413 5.13,-2.09098 6.8,-4.00422 a 4.89,5.1124342 0 0 0 0.66,-0.93048 4.31,4.5060514 0 0 0 0.26,-0.49138 6.14,6.4192936 0 0 1 0.73,-1.48459 c 1,-1.16049 2.7,-0.81548 4.15,-0.6273 l 0.46,0.0523 q 0.39,0 0.78,0 c 5.18,0.12546 10.2,-2.896 15.44,-2.896 5.75,0 10.63,3.47102 15.69,5.84427 1,0.48093 2,0.92003 2.9,1.36959 3.65,1.77733 6.4,3.66966 7.91,8.72982 0.84,2.97964 -0.36,6.15792 -1.9,8.7821 z"
       inkscape:connector-curvature="0"
       style="fill:#2f7dfe;stroke-width:1.02249086" />
    <path
       id="path8096"
       d="m 323.97022,211.32755 a 2.35,2.4568958 0 0 1 -0.54,3.13647 4.29,4.4851416 0 0 1 -2.18,0.81548 15.82,16.539613 0 0 1 -1.69,0.13591 4.65,4.8615172 0 0 1 -2.24,-0.40774 2,2.0909751 0 0 1 -0.39,-0.26137 4.89,5.1124342 0 0 0 0.66,-0.93049 c 0.13,0.10455 0.26,0.0836 0.78,0 a 12,12.545851 0 0 0 2.79,-0.50183 2.74,2.8646359 0 0 0 2,-2.09098 z"
       inkscape:connector-curvature="0"
       style="opacity:0.1;stroke-width:1.02249086" />
    <path
       id="path8098"
       d="m 304.27022,259.63953 a 6.4,6.6911204 0 0 0 2.38,0.93049 9.65,10.088955 0 0 0 1.85,0.31364 10.25,10.716248 0 0 0 4.51,-1.32777 z"
       inkscape:connector-curvature="0"
       style="opacity:0.1;stroke-width:1.02249086" />
    <g
       id="g8148"
       style="opacity:0.1" />
    <path
       id="path8150"
       d="m 852.54022,135.7388 v 21.95524 h 91.18 q -4.17,-6.04292 -8.52,-11.91856 c -0.4,-0.54365 -0.8,-1.04548 -1.22,-1.6205 l -4.27,-5.61427 v 0 l -0.59,-0.76321 v 0 l -1.55,-1.97597 z"
       inkscape:connector-curvature="0"
       style="opacity:0.2;fill:#2f7dfe;stroke-width:1.02249086" />
    <rect
       id="rect8152"
       height="21.934328"
       width="95.809998"
       y="135.7388"
       x="-759.69025"
       style="opacity:0.2;fill:#2f7dfe;stroke-width:1.02249086"
       transform="scale(-1,1)" />
    <rect
       id="rect8154"
       height="21.934328"
       width="95.809998"
       y="135.7388"
       x="-539.64026"
       style="opacity:0.2;fill:#2f7dfe;stroke-width:1.02249086"
       transform="scale(-1,1)" />
    <rect
       id="rect8156"
       height="21.934328"
       width="95.809998"
       y="135.7388"
       x="-353.53024"
       style="opacity:0.2;fill:#2f7dfe;stroke-width:1.02249086"
       transform="scale(-1,1)" />
  </g>
</svg>
