<?xml version="1.0" encoding="UTF-8" standalone="no"?>
<svg
   xmlns:dc="http://purl.org/dc/elements/1.1/"
   xmlns:cc="http://creativecommons.org/ns#"
   xmlns:rdf="http://www.w3.org/1999/02/22-rdf-syntax-ns#"
   xmlns:svg="http://www.w3.org/2000/svg"
   xmlns="http://www.w3.org/2000/svg"
   xmlns:xlink="http://www.w3.org/1999/xlink"
   xmlns:sodipodi="http://sodipodi.sourceforge.net/DTD/sodipodi-0.dtd"
   xmlns:inkscape="http://www.inkscape.org/namespaces/inkscape"
   id="98b38715-c4ac-41e9-8897-c725e8bf1e12"
   data-name="Layer 1"
   width="618"
   height="502"
   viewBox="0 0 617.99999 501.99998"
   version="1.1"
   sodipodi:docname="SignUpPage_Svg.svg"
   inkscape:version="0.92.3 (2405546, 2018-03-11)">
  <metadata
     id="metadata3239">
    <rdf:RDF>
      <cc:Work
         rdf:about="">
        <dc:format>image/svg+xml</dc:format>
        <dc:type
           rdf:resource="http://purl.org/dc/dcmitype/StillImage" />
        <dc:title>taking notes</dc:title>
      </cc:Work>
    </rdf:RDF>
  </metadata>
  <sodipodi:namedview
     pagecolor="#ffffff"
     bordercolor="#666666"
     borderopacity="1"
     objecttolerance="10"
     gridtolerance="10"
     guidetolerance="10"
     inkscape:pageopacity="0"
     inkscape:pageshadow="2"
     inkscape:window-width="1366"
     inkscape:window-height="705"
     id="namedview3237"
     showgrid="false"
     showborder="true"
     inkscape:zoom="0.76775686"
     inkscape:cx="241.54049"
     inkscape:cy="208.49695"
     inkscape:window-x="-8"
     inkscape:window-y="-8"
     inkscape:window-maximized="1"
     inkscape:current-layer="98b38715-c4ac-41e9-8897-c725e8bf1e12" />
  <defs
     id="defs2850">
    <linearGradient
       id="7b7941dc-94c7-4e08-95d0-23e2d7e6a13e"
       x1="847.40997"
       y1="397.42001"
       x2="847.40997"
       y2="188.07001"
       gradientUnits="userSpaceOnUse">
      <stop
         offset="0"
         stop-color="gray"
         stop-opacity="0.25"
         id="stop2837" />
      <stop
         offset="0.54"
         stop-color="gray"
         stop-opacity="0.12"
         id="stop2839" />
      <stop
         offset="1"
         stop-color="gray"
         stop-opacity="0.1"
         id="stop2841" />
    </linearGradient>
    <linearGradient
       id="58fdd33a-cfcb-43d1-a0c9-e446396930cd"
       x1="271.51001"
       y1="395.01001"
       x2="271.51001"
       y2="173.08"
       xlink:href="#7b7941dc-94c7-4e08-95d0-23e2d7e6a13e"
       gradientTransform="matrix(0.59809048,0,0,0.58985882,-42.922631,-11.035036)" />
    <linearGradient
       id="c04aec50-9c50-409e-ad7f-74c73d302a04"
       x1="847.53998"
       y1="734.89001"
       x2="847.53998"
       y2="461.04999"
       xlink:href="#7b7941dc-94c7-4e08-95d0-23e2d7e6a13e"
       gradientTransform="matrix(0.59809048,0,0,0.58985882,-42.922631,-11.035036)" />
    <linearGradient
       id="9dea3c81-3991-41bb-bbde-f73dfae923cb"
       x1="211.57001"
       y1="705.73999"
       x2="211.57001"
       y2="443.19"
       xlink:href="#7b7941dc-94c7-4e08-95d0-23e2d7e6a13e" />
    <linearGradient
       id="6cea3303-4509-42ee-9c3d-a24167e8af03"
       x1="570.69"
       y1="731.34998"
       x2="570.69"
       y2="470.67001"
       xlink:href="#7b7941dc-94c7-4e08-95d0-23e2d7e6a13e"
       gradientTransform="matrix(0.59809048,0,0,0.58985882,-42.922631,-11.035036)" />
    <linearGradient
       id="407b4fac-28f5-4df4-8381-e2a74f9e4c70"
       x1="610.78003"
       y1="318.04001"
       x2="610.78003"
       y2="160.28999"
       xlink:href="#7b7941dc-94c7-4e08-95d0-23e2d7e6a13e"
       gradientTransform="matrix(0.59809048,0,0,0.58985882,-42.922631,-11.035036)" />
    <linearGradient
       id="be916110-cb9e-4f1d-be15-effb40ceb94a"
       x1="625.44"
       y1="870.16998"
       x2="625.44"
       y2="202.10001"
       xlink:href="#7b7941dc-94c7-4e08-95d0-23e2d7e6a13e"
       gradientTransform="matrix(0.59809048,0,0,0.58985882,-42.922631,-11.035036)" />
    <linearGradient
       inkscape:collect="always"
       xlink:href="#7b7941dc-94c7-4e08-95d0-23e2d7e6a13e"
       id="linearGradient7487"
       gradientUnits="userSpaceOnUse"
       x1="847.40997"
       y1="397.42001"
       x2="847.40997"
       y2="188.07001"
       gradientTransform="matrix(0.59809048,0,0,0.58985882,-42.922631,-11.035036)" />
  </defs>
  <title
     id="title2852">taking notes</title>
  <ellipse
     cx="381.59601"
     cy="495.93097"
     rx="63.959789"
     ry="10.57027"
     id="ellipse2854"
     style="opacity:0.1;fill:#2f7dfe;stroke-width:0.5939604" />
  <path
     d="m 378.91057,66.201082 c -26.1844,21.907347 -60.15593,20.491689 -89.893,9.095614 C 259.28051,63.900631 231.88796,43.603591 202.89256,29.181549 A 241.80797,238.47992 0 0 0 127.22812,5.6166819 C 90.272118,0.56159094 48.99191,6.7197149 23.238132,42.134836 -5.440311,81.572801 -3.233349,152.70387 27.783619,188.92712 c 15.777628,18.41539 36.43568,27.45202 54.456138,41.83277 18.020473,14.38076 34.689243,38.25235 33.158123,66.00522 -1.41747,25.69424 -17.942696,45.41912 -35.024162,57.80614 -13.211822,9.55572 -29.47988,19.99623 -31.100706,39.79779 -1.543071,19.15861 12.135251,34.17051 25.203532,42.71167 42.607956,27.85313 95.096386,27.5818 137.560806,-0.70194 15.14964,-10.09248 29.0672,-23.51176 44.95246,-31.38049 41.69887,-20.64504 87.65615,0.13569 131.80718,7.73896 37.37469,6.43536 75.70032,3.10265 112.11207,-9.75036 21.86619,-7.71537 43.81612,-19.51254 59.18104,-41.49068 11.07665,-15.84951 17.97861,-35.9106 24.45592,-55.71807 q 10.37091,-31.68721 19.92838,-63.81682 c 3.8218,-12.85891 7.58977,-25.95379 8.57662,-39.72109 1.79427,-24.93333 -5.75363,-49.54814 -16.02284,-70.6179 C 572.66795,81.625889 531.59708,46.499798 487.14101,37.57523 442.68497,28.650674 395.57935,46.080995 361.0815,84.215368"
     id="path2856"
     inkscape:connector-curvature="0"
     style="opacity:0.1;fill:#2f7dfe;stroke-width:0.5939604" />
  <g
     id="g2860"
     style="opacity:0.35"
     transform="matrix(0.59809045,0,0,0.58985882,3.052588,4.0712459)">
    <path
       d="M 577.86,229.65 V 223 h -104.8 c -4.82,0 -1.88,6.69 -1.88,6.69 h -56.94 v 149.15 h 250 V 229.65 Z"
       transform="translate(-76.87,-25.61)"
       id="path2858"
       inkscape:connector-curvature="0"
       style="opacity:0.2;fill:#2f7dfe" />
  </g>
  <path
     d="m 501.50714,190.04784 c 0,0 18.84584,-32.92591 47.24916,-42.41085 a 58.068602,57.269392 0 0 0 29.42007,-21.7068 97.333245,95.993624 0 0 0 8.67828,-15.39532"
     stroke-miterlimit="10"
     id="path2862"
     inkscape:connector-curvature="0"
     style="fill:none;stroke:#535461;stroke-width:1.18792081;stroke-miterlimit:10" />
  <path
     d="m 604.67776,104.44752 c -3.2297,3.09676 -18.28961,6.2997 -18.28961,6.2997 0,0 3.69021,-14.74647 6.92588,-17.84913 a 8.1589326,8.0466395 0 1 1 11.36373,11.54943 z"
     id="path2864"
     inkscape:connector-curvature="0"
     style="fill:#2f7dfe;stroke-width:0.5939604" />
  <path
     d="m 596.16094,131.12095 c -4.41988,0.86708 -18.82788,-4.51832 -18.82788,-4.51832 0,0 11.23214,-10.39922 15.65202,-11.26631 a 8.1584815,8.0461948 0 1 1 3.17586,15.78463 z"
     id="path2866"
     inkscape:connector-curvature="0"
     style="fill:#2f7dfe;stroke-width:0.5939604" />
  <path
     d="m 565.13799,160.02403 c -4.25841,-1.45105 -13.9355,-13.27182 -13.9355,-13.27182 0,0 15.01805,-3.39169 19.27646,-1.93474 a 8.1588046,8.0465134 0 1 1 -5.34096,15.20656 z"
     id="path2868"
     inkscape:connector-curvature="0"
     style="fill:#2f7dfe;stroke-width:0.5939604" />
  <path
     d="m 536.67488,176.66395 c -4.44382,-0.71373 -16.0109,-10.74133 -16.0109,-10.74133 0,0 14.22259,-5.8396 18.6724,-5.11999 a 8.1595525,8.0472507 0 1 1 -2.6615,15.87901 z"
     id="path2870"
     inkscape:connector-curvature="0"
     style="fill:#2f7dfe;stroke-width:0.5939604" />
  <path
     d="m 564.77315,115.09448 c 0,4.44753 8.15198,17.33595 8.15198,17.33595 0,0 8.16991,-12.88252 8.16991,-17.33005 a 8.1639347,8.0515727 0 1 0 -16.32189,0 z"
     id="path2872"
     inkscape:connector-curvature="0"
     style="fill:#2f7dfe;stroke-width:0.5939604" />
  <path
     d="m 531.74061,134.97273 c 1.34571,4.24108 13.03838,14.1566 13.03838,14.1566 0,0 3.88162,-14.70517 2.5359,-18.94626 a 8.1579538,8.0456742 0 1 0 -15.55034,4.80736 z"
     id="path2874"
     inkscape:connector-curvature="0"
     style="fill:#2f7dfe;stroke-width:0.5939604" />
  <path
     d="m 502.31457,158.63786 c 0.59809,4.40624 10.4307,16.10904 10.4307,16.10904 0,0 6.34573,-13.84398 5.74765,-18.25022 a 8.1639347,8.0515727 0 1 0 -16.14845,2.14118 z"
     id="path2876"
     inkscape:connector-curvature="0"
     style="fill:#2f7dfe;stroke-width:0.5939604" />
  <path
     d="m 604.67776,104.44752 c -3.2297,3.09676 -18.28961,6.2997 -18.28961,6.2997 0,0 3.69021,-14.74647 6.92588,-17.84913 a 8.1589326,8.0466395 0 1 1 11.36373,11.54943 z"
     id="path2878"
     inkscape:connector-curvature="0"
     style="opacity:0.25;stroke-width:0.5939604" />
  <path
     d="m 596.16094,131.12095 c -4.41988,0.86708 -18.82788,-4.51832 -18.82788,-4.51832 0,0 11.23214,-10.39922 15.65202,-11.26631 a 8.1584815,8.0461948 0 1 1 3.17586,15.78463 z"
     id="path2880"
     inkscape:connector-curvature="0"
     style="opacity:0.25;stroke-width:0.5939604" />
  <path
     d="m 565.13799,160.02403 c -4.25841,-1.45105 -13.9355,-13.27182 -13.9355,-13.27182 0,0 15.01805,-3.39169 19.27646,-1.93474 a 8.1588046,8.0465134 0 1 1 -5.34096,15.20656 z"
     id="path2882"
     inkscape:connector-curvature="0"
     style="opacity:0.25;stroke-width:0.5939604" />
  <path
     d="m 536.67488,176.66395 c -4.44382,-0.71373 -16.0109,-10.74133 -16.0109,-10.74133 0,0 14.22259,-5.8396 18.6724,-5.11999 a 8.1595525,8.0472507 0 1 1 -2.6615,15.87901 z"
     id="path2884"
     inkscape:connector-curvature="0"
     style="opacity:0.25;stroke-width:0.5939604" />
  <path
     d="m 564.77315,115.09448 c 0,4.44753 8.15198,17.33595 8.15198,17.33595 0,0 8.16991,-12.88252 8.16991,-17.33005 a 8.1639347,8.0515727 0 1 0 -16.32189,0 z"
     id="path2886"
     inkscape:connector-curvature="0"
     style="opacity:0.25;stroke-width:0.5939604" />
  <path
     d="m 531.74061,134.97273 c 1.34571,4.24108 13.03838,14.1566 13.03838,14.1566 0,0 3.88162,-14.70517 2.5359,-18.94626 a 8.1579538,8.0456742 0 1 0 -15.55034,4.80736 z"
     id="path2888"
     inkscape:connector-curvature="0"
     style="opacity:0.25;stroke-width:0.5939604" />
  <path
     d="m 502.31457,158.63786 c 0.59809,4.40624 10.4307,16.10904 10.4307,16.10904 0,0 6.34573,-13.84398 5.74765,-18.25022 a 8.1639347,8.0515727 0 1 0 -16.14845,2.14118 z"
     id="path2890"
     inkscape:connector-curvature="0"
     style="opacity:0.25;stroke-width:0.5939604" />
  <path
     d="m 502.59568,189.3931 c 0,0 3.69619,-37.63299 25.71789,-57.64689 a 58.014773,57.216305 0 0 0 17.97261,-31.59876 97.279417,95.940537 0 0 0 1.60887,-17.548287"
     stroke-miterlimit="10"
     id="path2892"
     inkscape:connector-curvature="0"
     style="fill:none;stroke:#535461;stroke-width:1.18792081;stroke-miterlimit:10" />
  <path
     d="m 561.74681,69.905394 c -1.6866,4.129011 -14.13885,13.071278 -14.13885,13.071278 0,0 -2.68543,-14.970635 -0.99882,-19.099636 a 8.1603528,8.0480402 0 0 1 15.13767,6.01656 z"
     id="path2894"
     inkscape:connector-curvature="0"
     style="fill:#2f7dfe;stroke-width:0.5939604" />
  <path
     d="m 564.92268,97.711336 c -3.68424,2.559994 -19.06713,3.391684 -19.06713,3.391684 0,0 5.98091,-13.997347 9.67711,-16.551433 a 8.158106,8.0458242 0 1 1 9.39002,13.159749 z"
     id="path2896"
     inkscape:connector-curvature="0"
     style="fill:#2f7dfe;stroke-width:0.5939604" />
  <path
     d="m 548.42735,136.51816 c -4.49167,0.37161 -18.19393,-6.56514 -18.19393,-6.56514 0,0 12.33862,-9.10152 16.83028,-9.47314 a 8.1595855,8.0472832 0 1 1 1.36365,16.03828 z"
     id="path2898"
     inkscape:connector-curvature="0"
     style="fill:#2f7dfe;stroke-width:0.5939604" />
  <path
     d="m 529.24659,163.10308 c -4.36009,1.12074 -19.06114,-3.43887 -19.06114,-3.43887 0,0 10.60413,-11.02446 14.95225,-12.13928 a 8.1591187,8.046823 0 0 1 4.09693,15.57815 z"
     id="path2900"
     inkscape:connector-curvature="0"
     style="fill:#2f7dfe;stroke-width:0.5939604" />
  <path
     d="m 529.63535,95.587848 c 1.82418,4.064125 14.57544,12.587592 14.57544,12.587592 0,0 2.17109,-15.04141 0.34691,-19.105535 a 8.1678284,8.055413 0 1 0 -14.95227,6.488449 z"
     id="path2902"
     inkscape:connector-curvature="0"
     style="fill:#2f7dfe;stroke-width:0.5939604" />
  <path
     d="m 507.60168,126.99193 c 2.99046,3.33861 17.72741,7.71537 17.72741,7.71537 0,0 -2.49404,-14.99423 -5.46655,-18.33873 a 8.1582435,8.04596 0 0 0 -12.26086,10.61747 z"
     id="path2904"
     inkscape:connector-curvature="0"
     style="fill:#2f7dfe;stroke-width:0.5939604" />
  <path
     d="m 490.42454,160.35435 c 2.39235,3.78688 16.14843,10.55847 16.14843,10.55847 0,0 0.14954,-15.19477 -2.24283,-18.98166 a 8.1639347,8.0515727 0 0 0 -13.9116,8.42319 z"
     id="path2906"
     inkscape:connector-curvature="0"
     style="fill:#2f7dfe;stroke-width:0.5939604" />
  <path
     d="m 94.853492,341.62976 c 0,0 -23.32554,-28.50787 -21.860208,-57.11603 A 56.304235,55.52931 0 0 0 63.686997,250.62045 94.635848,93.333363 0 0 0 52.723995,237.4076"
     stroke-miterlimit="10"
     id="path2908"
     inkscape:connector-curvature="0"
     style="fill:none;stroke:#535461;stroke-width:1.18792081;stroke-miterlimit:10" />
  <path
     d="m 53.543382,219.37561 c 1.674648,3.98156 -0.771549,18.50978 -0.771549,18.50978 0,0 -12.153186,-8.55295 -13.827847,-12.53449 a 7.9076983,7.7988629 0 0 1 14.611361,-5.96937 z"
     id="path2910"
     inkscape:connector-curvature="0"
     style="fill:#2f7dfe;stroke-width:0.5939604" />
  <path
     d="m 74.901186,236.48742 c -0.789471,4.23519 -10.855346,15.10629 -10.855346,15.10629 0,0 -5.508405,-13.70832 -4.695001,-17.93171 a 7.9067557,7.7979335 0 1 1 15.550347,2.82542 z"
     id="path2912"
     inkscape:connector-curvature="0"
     style="fill:#2f7dfe;stroke-width:0.5939604" />
  <path
     d="m 90.176426,274.36815 c -2.852911,3.26783 -17.111384,7.63868 -17.111384,7.63868 0,0 2.272753,-14.55182 5.125642,-17.81964 a 7.9067557,7.7979335 0 0 1 11.961808,10.18096 z"
     id="path2914"
     inkscape:connector-curvature="0"
     style="fill:#2f7dfe;stroke-width:0.5939604" />
  <path
     d="m 95.200381,305.60118 c -2.248819,3.69252 -15.550359,10.38152 -15.550359,10.38152 0,0 -0.25717,-14.74647 1.997632,-18.41539 a 7.9067557,7.7979335 0 0 1 13.552727,8.03387 z"
     id="path2916"
     inkscape:connector-curvature="0"
     style="fill:#2f7dfe;stroke-width:0.5939604" />
  <path
     d="m 49.003876,258.63663 c 4.061026,1.58672 18.750124,-1.04994 18.750124,-1.04994 0,0 -8.851725,-11.85618 -12.906781,-13.44879 a 7.9127366,7.803832 0 0 0 -5.843343,14.49873 z"
     id="path2918"
     inkscape:connector-curvature="0"
     style="fill:#2f7dfe;stroke-width:0.5939604" />
  <path
     d="m 55.355589,295.10169 c 4.354107,0.31853 17.571899,-6.52974 17.571899,-6.52974 0,0 -12.045544,-8.70631 -16.399638,-9.02483 a 7.9084711,7.799625 0 1 0 -1.196181,15.55457 z"
     id="path2920"
     inkscape:connector-curvature="0"
     style="fill:#2f7dfe;stroke-width:0.5939604" />
  <path
     d="m 66.456151,329.68511 c 4.234484,1.04405 18.439128,-3.53916 18.439128,-3.53916 0,0 -10.382855,-10.55255 -14.61734,-11.57891 a 7.9078534,7.799016 0 1 0 -3.821788,15.13577 z"
     id="path2922"
     inkscape:connector-curvature="0"
     style="fill:#2f7dfe;stroke-width:0.5939604" />
  <path
     d="m 593.14657,389.47911 c 0,0 4.56342,5.89859 -2.10528,14.74646 -6.66871,8.84788 -12.17114,16.38628 -9.94625,21.93095 0,0 10.06586,-16.51604 18.25372,-16.7343 8.18786,-0.21824 2.81103,-10.0217 -6.20219,-19.94311 z"
     id="path2924"
     inkscape:connector-curvature="0"
     style="fill:#2f7dfe;stroke-width:0.5939604" />
  <path
     d="m 593.14657,389.47911 a 7.4223024,7.3201478 0 0 1 0.93302,1.84626 c 7.9905,9.26077 12.24889,17.9022 4.56942,18.12046 -7.1771,0.20054 -15.74175,12.81763 -17.79918,16.00877 a 7.0694291,6.9721311 0 0 0 0.24521,0.72553 c 0,0 10.06586,-16.51606 18.25372,-16.7343 8.18786,-0.21826 2.81103,-10.04531 -6.20219,-19.96672 z"
     id="path2926"
     inkscape:connector-curvature="0"
     style="opacity:0.1;stroke-width:0.5939604" />
  <path
     d="m 601.63347,396.97621 c 0,2.07631 -0.23924,3.75149 -0.52633,3.75149 -0.28707,0 -0.52631,-1.67518 -0.52631,-3.75149 0,-2.0763 0.29307,-1.09124 0.5981,-1.09124 0.30502,0 0.45454,-0.97917 0.45454,1.09124 z"
     id="path2928"
     inkscape:connector-curvature="0"
     style="fill:#ffd037;stroke-width:0.5939604" />
  <path
     d="m 604.54019,399.4536 c -1.84212,0.99097 -3.45098,1.58674 -3.58854,1.33899 -0.13757,-0.24774 1.24404,-1.26229 3.08615,-2.25325 1.84211,-0.99097 1.11843,-0.27133 1.25599,0 0.13755,0.27133 1.0945,-0.0767 -0.7536,0.91426 z"
     id="path2930"
     inkscape:connector-curvature="0"
     style="fill:#ffd037;stroke-width:0.5939604" />
  <path
     d="m 569.04353,389.47911 c 0,0 -4.56343,5.89859 2.10528,14.74646 6.6687,8.84788 12.17114,16.38628 9.94623,21.93095 0,0 -10.06585,-16.51604 -18.25371,-16.7343 -8.18786,-0.21824 -2.81104,-10.0217 6.2022,-19.94311 z"
     id="path2932"
     inkscape:connector-curvature="0"
     style="fill:#2f7dfe;stroke-width:0.5939604" />
  <path
     d="m 569.04353,389.47911 a 7.1770854,7.0783056 0 0 0 -0.93302,1.84626 c -7.99647,9.26077 -12.24891,17.9022 -4.56941,18.12046 7.17708,0.20054 15.74174,12.81763 17.79916,16.00877 -0.0717,0.24183 -0.14951,0.48368 -0.24522,0.72553 0,0 -10.06585,-16.51606 -18.25371,-16.7343 -8.18786,-0.21826 -2.81104,-10.04531 6.2022,-19.96672 z"
     id="path2934"
     inkscape:connector-curvature="0"
     style="opacity:0.1;stroke-width:0.5939604" />
  <path
     d="m 560.55063,396.97621 c 0,2.07631 0.23923,3.75149 0.52632,3.75149 0.28709,0 0.52633,-1.67518 0.52633,-3.75149 0,-2.0763 -0.29306,-1.09124 -0.59809,-1.09124 -0.30502,0 -0.45456,-0.97917 -0.45456,1.09124 z"
     id="path2936"
     inkscape:connector-curvature="0"
     style="fill:#ffd037;stroke-width:0.5939604" />
  <path
     d="m 557.64393,399.4536 c 1.8481,0.99097 3.45696,1.58674 3.58854,1.33899 0.13157,-0.24774 -1.24404,-1.26229 -3.08615,-2.25325 -1.84213,-0.99097 -1.11844,-0.27133 -1.256,0 -0.13754,0.27133 -1.08852,-0.0767 0.75361,0.91426 z"
     id="path2938"
     inkscape:connector-curvature="0"
     style="fill:#ffd037;stroke-width:0.5939604" />
  <ellipse
     cx="581.09497"
     cy="463.9783"
     rx="47.715652"
     ry="7.219872"
     id="ellipse2940"
     style="opacity:0.1;fill:#2f7dfe;stroke-width:0.5939604" />
  <path
     d="m 605.65263,418.24651 -0.22727,1.83446 -0.32296,2.59539 -0.13158,1.08534 -0.31699,2.59537 -0.14355,1.08535 -0.31698,2.59537 -3.65433,29.49294 c -0.32298,2.63668 -4.68903,4.71887 -9.9582,4.71887 h -18.97144 c -5.26918,0 -9.62925,-2.0527 -9.9582,-4.71887 l -3.65434,-29.49294 -0.32297,-2.59537 -0.13157,-1.08535 -0.32298,-2.59537 -0.13755,-1.08534 -0.31698,-2.59539 -0.23327,-1.83446 c -0.17942,-1.49233 2.18303,-2.74873 5.16152,-2.74873 h 38.80411 c 2.97848,0 5.34095,1.2564 5.15553,2.74873 z"
     id="path2942"
     inkscape:connector-curvature="0"
     style="fill:#65617d;stroke-width:0.5939604" />
  <polygon
     points="1006.62,709.67 926.33,709.67 925.8,705.27 1007.16,705.27 "
     id="polygon2944"
     style="fill:#9d9cb5"
     transform="matrix(0.59809045,0,0,0.58985882,3.052588,4.0712459)" />
  <polygon
     points="1005.86,715.91 927.1,715.91 926.55,711.51 1006.4,711.51 "
     id="polygon2946"
     style="fill:#9d9cb5"
     transform="matrix(0.59809045,0,0,0.58985882,3.052588,4.0712459)" />
  <polygon
     points="1005.1,722.14 927.86,722.14 927.32,717.75 1005.63,717.75 "
     id="polygon2948"
     style="fill:#9d9cb5"
     transform="matrix(0.59809045,0,0,0.58985882,3.052588,4.0712459)" />
  <path
     d="m 483.72592,113.7614 h -0.5024 c 0.78947,-0.88479 1.19619,-1.76958 1.13039,-2.55408 l -4.54549,-4.48294 1.73446,-3.83409 h -5.84333 l 1.08253,-2.99058 h -3.46294 l -38.31366,12.58759 c 0,0 -0.0419,0.52498 0,1.2741 h -24.67125 v 109.62526 h 107.1539 V 113.7614 Z"
     id="path2950"
     inkscape:connector-curvature="0"
     style="fill:url(#linearGradient7487);stroke-width:0.5939604" />
  <rect
     x="411.1297"
     y="114.14481"
     width="105.53905"
     height="108.08572"
     id="rect2952"
     style="fill:#f6f7f9;stroke-width:0.5939604" />
  <path
     d="m 483.43287,114.14481 c -5.00005,7.26116 -38.39742,16.82277 -38.39742,16.82277 l 0.20933,-7.56788 h -6.17828 a 3.4988291,3.450674 0 0 0 -1.71053,-3.7869 c -1.79427,-0.97326 -1.96771,-4.12901 -1.94379,-5.46799 z"
     id="path2954"
     inkscape:connector-curvature="0"
     style="opacity:0.1;stroke-width:0.5939604" />
  <path
     d="m 473.17561,100.47777 -37.73353,12.38704 c 0,0 -0.43063,4.83684 1.91389,6.09324 a 3.5107909,3.4624712 0 0 1 1.71053,3.7869 h 6.17828 l -0.20933,7.5679 c 0,0 39.65339,-11.3548 39.01344,-18.71035 l -4.47371,-4.41803 1.70456,-3.78689 h -5.75963 l 1.07058,-2.9493 z"
     id="path2956"
     inkscape:connector-curvature="0"
     style="fill:#9d9cb5;stroke-width:0.5939604" />
  <g
     id="g2960"
     style="opacity:0.35"
     transform="matrix(0.59809045,0,0,0.58985882,3.052588,4.0712459)">
    <rect
       x="714.91998"
       y="246.00999"
       width="111.22"
       height="3.1199999"
       id="rect2958"
       style="opacity:0.2;fill:#2f7dfe" />
  </g>
  <g
     id="g2964"
     style="opacity:0.35"
     transform="matrix(0.59809045,0,0,0.58985882,3.052588,4.0712459)">
    <rect
       x="714.91998"
       y="262.45999"
       width="111.22"
       height="3.1199999"
       id="rect2962"
       style="opacity:0.2;fill:#2f7dfe" />
  </g>
  <g
     id="g2968"
     style="opacity:0.35"
     transform="matrix(0.59809045,0,0,0.58985882,3.052588,4.0712459)">
    <rect
       x="714.91998"
       y="278.89999"
       width="111.22"
       height="3.1199999"
       id="rect2966"
       style="opacity:0.2;fill:#2f7dfe" />
  </g>
  <g
     id="g2972"
     style="opacity:0.35"
     transform="matrix(0.59809045,0,0,0.58985882,3.052588,4.0712459)">
    <rect
       x="714.91998"
       y="295.34"
       width="111.22"
       height="3.1199999"
       id="rect2970"
       style="opacity:0.2;fill:#2f7dfe" />
  </g>
  <g
     id="g2976"
     style="opacity:0.35"
     transform="matrix(0.59809045,0,0,0.58985882,3.052588,4.0712459)">
    <rect
       x="714.91998"
       y="311.78"
       width="111.22"
       height="3.1199999"
       id="rect2974"
       style="opacity:0.2;fill:#2f7dfe" />
  </g>
  <g
     id="g2980"
     style="opacity:0.35"
     transform="matrix(0.59809045,0,0,0.58985882,3.052588,4.0712459)">
    <rect
       x="714.91998"
       y="328.23001"
       width="111.22"
       height="3.1199999"
       id="rect2978"
       style="opacity:0.2;fill:#2f7dfe" />
  </g>
  <path
     d="m 126.1396,104.87812 h -0.25119 c 1.88996,-4.77785 3.63638,-9.437741 3.55863,-10.328421 -0.16747,-1.769573 -3.76199,2.076298 -3.92945,1.114822 -0.16748,-0.961465 0,-4.6068 -1.6328,-4.6068 -1.63278,0 -2.61964,1.893458 -3.58855,1.893458 -0.9689,0 -4.91031,-0.637055 -4.91031,-0.637055 l -5.01798,12.563996 H 72.568642 V 221.9592 H 166.37315 V 104.87812 Z"
     id="path2982"
     inkscape:connector-curvature="0"
     style="fill:url(#58fdd33a-cfcb-43d1-a0c9-e446396930cd);stroke-width:0.5939604" />
  <rect
     x="73.621269"
     y="105.52695"
     width="91.681282"
     height="115.64772"
     id="rect2984"
     style="fill:#f6f7f9;stroke-width:0.5939604" />
  <path
     d="m 125.99007,105.52696 c -1.93182,4.94893 -4.10888,10.16327 -4.6053,11.40788 -0.96292,2.35944 -1.5969,1.10303 -2.7213,0.79042 -1.12441,-0.31263 -2.55386,0.31261 -3.19382,0 -0.63993,-0.31263 -4.39596,0 -4.39596,0 a 12.374492,12.204179 0 0 0 0,-1.7401 c -0.0838,-0.62525 -4.40194,0 -4.40194,0 l 4.11485,-10.4582 z"
     id="path2986"
     inkscape:connector-curvature="0"
     style="opacity:0.1;stroke-width:0.5939604" />
  <path
     d="m 115.46965,93.122243 -8.7979,22.237667 c 0,0 4.31821,-0.63115 4.39597,0 a 11.429509,11.272202 0 0 1 0,1.73419 c 0,0 3.762,-0.31853 4.40193,0 0.63996,0.31853 2.07538,-0.31853 3.19382,0 1.11842,0.31853 1.75838,1.57492 2.7213,-0.79041 0.96292,-2.36532 7.99648,-19.241196 7.83499,-20.975387 -0.16147,-1.734192 -3.67826,2.052713 -3.83973,1.103035 -0.1615,-0.949668 0,-4.547812 -1.59691,-4.547812 -1.5969,0 -2.55983,1.869863 -3.51677,1.869863 -0.95695,0 -4.7967,-0.631146 -4.7967,-0.631146 z"
     id="path2988"
     inkscape:connector-curvature="0"
     style="fill:#9d9cb5;stroke-width:0.5939604" />
  <g
     id="g2992"
     style="opacity:0.35"
     transform="matrix(0.59809045,0,0,0.58985882,3.052588,4.0712459)">
    <rect
       x="139.03"
       y="224.03999"
       width="111.22"
       height="3.1199999"
       id="rect2990"
       style="opacity:0.2;fill:#2f7dfe" />
  </g>
  <g
     id="g2996"
     style="opacity:0.35"
     transform="matrix(0.59809045,0,0,0.58985882,3.052588,4.0712459)">
    <rect
       x="139.03"
       y="235.81"
       width="111.22"
       height="3.1199999"
       id="rect2994"
       style="opacity:0.2;fill:#2f7dfe" />
  </g>
  <g
     id="g3000"
     style="opacity:0.35"
     transform="matrix(0.59809045,0,0,0.58985882,3.052588,4.0712459)">
    <rect
       x="139.03"
       y="247.57001"
       width="111.22"
       height="3.1199999"
       id="rect2998"
       style="opacity:0.2;fill:#2f7dfe" />
  </g>
  <g
     id="g3004"
     style="opacity:0.35"
     transform="matrix(0.59809045,0,0,0.58985882,3.052588,4.0712459)">
    <rect
       x="139.03"
       y="259.34"
       width="111.22"
       height="3.1199999"
       id="rect3002"
       style="opacity:0.2;fill:#2f7dfe" />
  </g>
  <g
     id="g3008"
     style="opacity:0.35"
     transform="matrix(0.59809045,0,0,0.58985882,3.052588,4.0712459)">
    <rect
       x="139.03"
       y="271.10001"
       width="111.22"
       height="3.1199999"
       id="rect3006"
       style="opacity:0.2;fill:#2f7dfe" />
  </g>
  <g
     id="g3012"
     style="opacity:0.35"
     transform="matrix(0.59809045,0,0,0.58985882,3.052588,4.0712459)">
    <rect
       x="139.03"
       y="282.85999"
       width="111.22"
       height="3.1199999"
       id="rect3010"
       style="opacity:0.2;fill:#2f7dfe" />
  </g>
  <path
     d="m 472.10502,277.99579 h -0.25119 c 2.3206,-5.89858 4.46175,-11.66151 4.36007,-12.74095 -0.19737,-2.16479 -4.61128,2.56 -4.78471,1.38027 -0.17346,-1.17972 0,-5.68624 -2.00361,-5.68624 -2.0036,0 -3.20577,2.35944 -4.40793,2.35944 -1.20217,0 -6.01679,-0.79041 -6.01679,-0.79041 l -6.18427,15.47789 H 406.4945 V 422.44632 H 521.46542 V 277.99579 Z"
     id="path3014"
     inkscape:connector-curvature="0"
     style="fill:url(#c04aec50-9c50-409e-ad7f-74c73d302a04);stroke-width:0.5939604" />
  <rect
     x="407.41559"
     y="278.99857"
     width="112.96734"
     height="142.50989"
     id="rect3016"
     style="fill:#f6f7f9;stroke-width:0.5939604" />
  <path
     d="m 471.88372,278.99855 c -2.35646,6.05195 -5.00003,12.38703 -5.61606,13.90887 -1.19617,2.91391 -1.96772,1.35667 -3.34931,0.97326 -1.38159,-0.38341 -3.15194,0.38341 -3.94141,0 -0.78948,-0.38341 -5.41871,0 -5.41871,0 a 15.215421,15.006007 0 0 0 0,-2.14119 c -0.1017,-0.77271 -5.41869,0 -5.41869,0 l 5.0419,-12.74094 z"
     id="path3018"
     inkscape:connector-curvature="0"
     style="opacity:0.1;stroke-width:0.5939604" />
  <path
     d="m 458.97694,263.70941 -10.8374,27.39894 c 0,0 5.31703,-0.77861 5.41869,0 a 15.125707,14.917528 0 0 1 0,2.1353 c 0,0 4.62923,-0.38341 5.41871,0 0.78947,0.38339 2.55982,-0.38341 3.94141,0 1.38159,0.38339 2.1651,1.94652 3.34931,-0.96738 1.18422,-2.91391 9.85055,-23.71233 9.65317,-25.84762 -0.19737,-2.13528 -4.53351,2.52461 -4.73089,1.36258 -0.19735,-1.16202 0,-5.60955 -1.96771,-5.60955 -1.96773,0 -3.15194,2.30635 -4.33616,2.30635 -1.18421,0 -5.90913,-0.77862 -5.90913,-0.77862 z"
     id="path3020"
     inkscape:connector-curvature="0"
     style="fill:#9d9cb5;stroke-width:0.5939604" />
  <g
     id="g3024"
     style="opacity:0.35"
     transform="matrix(0.59809045,0,0,0.58985882,3.052588,4.0712459)">
    <rect
       x="714.91998"
       y="533.59998"
       width="111.22"
       height="7.9299998"
       id="rect3022"
       style="opacity:0.2;fill:#2f7dfe" />
  </g>
  <g
     id="g3028"
     style="opacity:0.35"
     transform="matrix(0.59809045,0,0,0.58985882,3.052588,4.0712459)">
    <rect
       x="714.91998"
       y="585.10999"
       width="111.22"
       height="7.9299998"
       id="rect3026"
       style="opacity:0.2;fill:#2f7dfe" />
  </g>
  <g
     id="g3032"
     style="opacity:0.35"
     transform="matrix(0.59809045,0,0,0.58985882,3.052588,4.0712459)">
    <rect
       x="714.91998"
       y="636.63"
       width="111.22"
       height="7.9299998"
       id="rect3030"
       style="opacity:0.2;fill:#2f7dfe" />
  </g>
  <polygon
     points="109.79,705.74 313.36,705.74 313.36,472.76 237.97,472.76 237.97,443.19 196.46,443.19 196.46,472.76 109.79,472.76 "
     id="polygon3034"
     style="fill:url(#9dea3c81-3991-41bb-bbde-f73dfae923cb)"
     transform="matrix(0.59809045,0,0,0.58985882,3.052588,4.0712459)" />
  <rect
     x="70.002823"
     y="283.62897"
     width="119.18149"
     height="135.83267"
     id="rect3036"
     style="fill:#f6f7f9;stroke-width:0.5939604" />
  <rect
     x="120.74479"
     y="283.62897"
     width="24.306398"
     height="18.50387"
     id="rect3038"
     style="opacity:0.1;stroke-width:0.5939604" />
  <rect
     x="120.74479"
     y="266.38736"
     width="24.306398"
     height="35.1143"
     id="rect3040"
     style="fill:#9d9cb5;stroke-width:0.5939604" />
  <g
     id="g3044"
     style="opacity:0.35"
     transform="matrix(0.59809045,0,0,0.58985882,3.052588,4.0712459)">
    <rect
       x="155.96001"
       y="529.64001"
       width="111.22"
       height="7.9299998"
       id="rect3042"
       style="opacity:0.2;fill:#2f7dfe" />
  </g>
  <g
     id="g3048"
     style="opacity:0.35"
     transform="matrix(0.59809045,0,0,0.58985882,3.052588,4.0712459)">
    <rect
       x="155.96001"
       y="545.40997"
       width="111.22"
       height="7.9299998"
       id="rect3046"
       style="opacity:0.2;fill:#2f7dfe" />
  </g>
  <g
     id="g3052"
     style="opacity:0.35"
     transform="matrix(0.59809045,0,0,0.58985882,3.052588,4.0712459)">
    <rect
       x="155.96001"
       y="561.19"
       width="111.22"
       height="7.9299998"
       id="rect3050"
       style="opacity:0.2;fill:#2f7dfe" />
  </g>
  <g
     id="g3056"
     style="opacity:0.35"
     transform="matrix(0.59809045,0,0,0.58985882,3.052588,4.0712459)">
    <rect
       x="155.96001"
       y="576.96002"
       width="111.22"
       height="7.9299998"
       id="rect3054"
       style="opacity:0.2;fill:#2f7dfe" />
  </g>
  <g
     id="g3060"
     style="opacity:0.35"
     transform="matrix(0.59809045,0,0,0.58985882,3.052588,4.0712459)">
    <rect
       x="237.42"
       y="594.52002"
       width="29.77"
       height="24.059999"
       id="rect3058"
       style="opacity:0.2;fill:#2f7dfe" />
  </g>
  <g
     id="g3064"
     style="opacity:0.35"
     transform="matrix(0.59809045,0,0,0.58985882,3.052588,4.0712459)">
    <rect
       x="155.96001"
       y="624.28003"
       width="29.77"
       height="24.059999"
       id="rect3062"
       style="opacity:0.2;fill:#2f7dfe" />
  </g>
  <path
     d="m 316.36825,282.71465 h -0.16746 c 1.9378,-7.4735 3.39714,-13.42519 3.39714,-13.42519 l -8.26561,3.83409 c 0,0 -5.86725,-7.66816 -8.03833,-6.38816 -2.17105,1.27999 -6.93786,4.47113 -6.93786,4.47113 l -6.32779,-3.19703 -2.42226,14.70516 h -49.97046 v 106.1097 l 3.21175,1.89346 c 2.64954,-0.93788 7.00961,-2.5305 7.00961,-2.5305 l -2.00359,5.48568 1.35168,0.79041 2.27873,-2.035 0.8433,3.88717 2.70934,1.59851 4.27636,-2.68385 -1.19619,4.51831 4.01319,2.35944 11.66875,-4.32367 -3.51676,9.13103 2.31459,1.36846 5.28114,-0.91427 c 0,0 -0.23923,1.82265 -0.38876,3.79868 l 5.29909,3.12625 c 2.17106,-0.8317 4.21654,-1.65159 4.21654,-1.65159 0,0 -0.20934,1.99371 -0.30503,3.95205 l 3.55266,2.09988 c 2.80504,-1.6162 6.37565,-3.81638 6.37565,-3.81638 l -2.99046,5.4857 h 67.52441 V 282.71465 Z"
     id="path3066"
     inkscape:connector-curvature="0"
     style="fill:url(#6cea3303-4509-42ee-9c3d-a24167e8af03);stroke-width:0.5939604" />
  <path
     d="m 357.83386,283.62893 v 135.8327 h -66.22654 l 2.95455,-5.40901 c 0,0 -3.49883,2.16477 -6.25005,3.76329 l -3.48088,-2.07629 c 0.0957,-1.92884 0.30503,-3.89897 0.30503,-3.89897 0,0 -2.00959,0.8081 -4.13878,1.62802 l -5.19742,-3.08497 c 0.14953,-1.94654 0.3768,-3.74561 0.3768,-3.74561 l -5.17348,0.90249 -2.26677,-1.35078 3.445,-9.01304 -11.44147,4.27058 -3.94141,-2.35944 1.14834,-4.45933 -4.18664,2.64847 -2.65552,-1.57492 -0.82536,-3.83408 -2.23686,2.01731 -1.32777,-0.78451 1.96772,-5.409 c 0,0 -4.27634,1.56901 -6.87804,2.4951 l -3.14595,-1.86396 V 283.62893 Z"
     id="path3068"
     inkscape:connector-curvature="0"
     style="fill:#f6f7f9;stroke-width:0.5939604" />
  <g
     id="g3072"
     style="opacity:0.35"
     transform="matrix(0.59809045,0,0,0.58985882,3.052588,4.0712459)">
    <rect
       x="437.94"
       y="545.40997"
       width="111.22"
       height="7.9299998"
       id="rect3070"
       style="opacity:0.2;fill:#2f7dfe" />
  </g>
  <g
     id="g3076"
     style="opacity:0.35"
     transform="matrix(0.59809045,0,0,0.58985882,3.052588,4.0712459)">
    <rect
       x="437.94"
       y="569.12"
       width="111.22"
       height="7.9299998"
       id="rect3074"
       style="opacity:0.2;fill:#2f7dfe" />
  </g>
  <g
     id="g3080"
     style="opacity:0.35"
     transform="matrix(0.59809045,0,0,0.58985882,3.052588,4.0712459)">
    <rect
       x="437.94"
       y="592.82001"
       width="111.22"
       height="7.9299998"
       id="rect3078"
       style="opacity:0.2;fill:#2f7dfe" />
  </g>
  <g
     id="g3084"
     style="opacity:0.35"
     transform="matrix(0.59809045,0,0,0.58985882,3.052588,4.0712459)">
    <rect
       x="437.94"
       y="616.53003"
       width="22.280001"
       height="7.9299998"
       id="rect3082"
       style="opacity:0.2;fill:#2f7dfe" />
  </g>
  <path
     d="m 315.85987,283.62893 c -3.24165,12.61118 -7.96655,30.08281 -9.19863,29.77609 -1.91389,-0.51319 -4.90435,-4.12902 -4.90435,-4.12902 0,0 -7.03353,6.51794 -10.44265,3.15574 -3.40912,-3.36219 -8.10413,-1.05584 -8.10413,-1.05584 l 4.54549,-27.75286 z"
     id="path3086"
     inkscape:connector-curvature="0"
     style="opacity:0.1;stroke-width:0.5939604" />
  <path
     d="m 290.03432,269.1479 -6.82421,41.63224 c 0,0 4.68904,-2.31224 8.09815,1.05585 3.40911,3.36809 10.44863,-3.16755 10.44863,-3.16755 0,0 2.99046,3.60995 4.90435,4.12903 1.9139,0.51906 12.36851,-42.38725 12.36851,-42.38725 l -8.10413,3.78689 c 0,0 -5.75362,-7.57379 -7.8888,-6.3115 -2.1352,1.26229 -6.8003,4.41803 -6.8003,4.41803 z"
     id="path3088"
     inkscape:connector-curvature="0"
     style="fill:#9d9cb5;stroke-width:0.5939604" />
  <path
     d="m 345.77636,87.506777 v -3.99335 H 282.307 c -2.91269,0 -1.13039,3.99335 -1.13039,3.99335 H 246.6907 V 176.54007 H 398.06741 V 87.471396 Z"
     id="path3090"
     inkscape:connector-curvature="0"
     style="fill:url(#407b4fac-28f5-4df4-8381-e2a74f9e4c70);stroke-width:0.5939604" />
  <rect
     x="247.64767"
     y="87.93148"
     width="149.51064"
     height="88.00103"
     id="rect3092"
     style="fill:#f6f7f9;stroke-width:0.5939604" />
  <path
     d="M 345.51321,102.28274 H 286.1886 c 0,0 -0.63995,-6.783384 1.4414,-8.039776 2.08135,-1.256403 -5.92109,-5.680331 -5.92109,-5.680331 a 6.6687086,6.5769258 0 0 1 -0.23326,-0.631156 h 64.03756 v 2.052714 c 0,0 8.15795,7.095999 0,12.298549 z"
     id="path3094"
     inkscape:connector-curvature="0"
     style="opacity:0.1;stroke-width:0.5939604" />
  <path
     d="m 282.82734,83.991215 h 62.68587 v 5.361819 c 0,0 8.15795,7.078304 0,12.298566 H 286.1886 c 0,0 -0.63995,-6.78339 1.4414,-8.039782 2.08135,-1.256402 -5.92109,-5.680341 -5.92109,-5.680341 0,0 -1.7584,-3.940262 1.11843,-3.940262 z"
     id="path3096"
     inkscape:connector-curvature="0"
     style="fill:#9d9cb5;stroke-width:0.5939604" />
  <g
     id="g3100"
     style="opacity:0.35"
     transform="matrix(0.59809045,0,0,0.58985882,3.052588,4.0712459)">
    <rect
       x="439.67001"
       y="188.96001"
       width="188.58"
       height="3.1199999"
       id="rect3098"
       style="opacity:0.2;fill:#2f7dfe" />
  </g>
  <g
     id="g3104"
     style="opacity:0.35"
     transform="matrix(0.59809045,0,0,0.58985882,3.052588,4.0712459)">
    <rect
       x="439.67001"
       y="200.72"
       width="112.65"
       height="3.1199999"
       id="rect3102"
       style="opacity:0.2;fill:#2f7dfe" />
  </g>
  <g
     id="g3108"
     style="opacity:0.35"
     transform="matrix(0.59809045,0,0,0.58985882,3.052588,4.0712459)">
    <rect
       x="439.67001"
       y="212.49001"
       width="188.58"
       height="3.1199999"
       id="rect3106"
       style="opacity:0.2;fill:#2f7dfe" />
  </g>
  <g
     id="g3112"
     style="opacity:0.35"
     transform="matrix(0.59809045,0,0,0.58985882,3.052588,4.0712459)">
    <rect
       x="439.67001"
       y="224.25"
       width="188.58"
       height="3.1199999"
       id="rect3110"
       style="opacity:0.2;fill:#2f7dfe" />
  </g>
  <g
     id="g3116"
     style="opacity:0.35"
     transform="matrix(0.59809045,0,0,0.58985882,3.052588,4.0712459)">
    <rect
       x="439.67001"
       y="236.00999"
       width="188.58"
       height="3.1199999"
       id="rect3114"
       style="opacity:0.2;fill:#2f7dfe" />
  </g>
  <path
     d="m 425.19679,494.04337 c -1.07058,-4.49472 -1.72848,-8.43498 -1.72848,-8.43498 0,0 0.24522,-4.88993 -1.97968,-8.55885 v -1.22101 0 -9.03074 a 30.903333,30.478004 0 0 1 2.30863,-4.71886 c 1.65072,-2.84313 0,-13.24824 0,-13.24824 0,0 -6.11249,-14.66978 -4.62324,-23.97184 1.48924,-9.30209 -12.5599,-41.31963 -12.5599,-41.31963 a 41.19647,40.629474 0 0 1 1.32178,-9.14871 7.3624935,7.2611619 0 0 0 0.17942,-1.91703 c 0,-0.0767 0,-0.15336 0,-0.23596 v 0.0767 c -0.20933,-6.13454 -5.12563,-17.63679 -5.12563,-17.63679 l 0.6579,-21.92504 c 0,0 3.13998,-12.92971 -1.97968,-30.27747 -1.79427,-6.05783 -2.93662,-10.90058 -3.66031,-14.64028 q -0.12562,-0.63706 -0.23325,-1.221 c 10.54432,-1.58673 18.59463,-2.90803 18.59463,-2.90803 0,0 -6.11848,-25.24594 -10.24529,-29.65808 -4.12683,-4.41214 -7.43427,-18.28563 -7.43427,-18.28563 0,0 -2.15313,-17.81964 1.32178,-23.00449 3.47491,-5.18486 3.95936,-14.19789 3.95936,-14.19789 0,0 7.93068,-5.67446 8.9235,-8.19905 0.99284,-2.52459 2.64356,-8.19905 2.64356,-11.20733 0,-3.00828 -0.99282,-5.68033 -0.65789,-7.25525 0.33494,-1.57494 -2.31461,-7.56789 -0.99283,-10.41101 a 7.7751758,7.6681645 0 0 0 0.52631,-2.73694 0.35287337,0.3480167 0 0 0 0,-0.0827 c 0,0 0,0 0,-0.0295 a 39.139039,38.600361 0 0 0 -0.69976,-7.40273 c 0,0 -3.58854,-3.12035 -7.84096,-4.12902 l -0.17344,-0.67833 -0.44858,-1.76958 a 8.4211136,8.305212 0 0 0 -0.7835,-0.46009 v -0.64294 l -0.0717,-2.56 1.24402,-5.76291 C 408.07351,125.20453 394.52677,123.724 394.52677,123.724 a 7.0873718,6.9898269 0 0 0 -3.83375,-3.33861 c -2.7273,-0.94968 -0.45456,15.065 0.81937,16.08545 0.96294,0.77271 3.92349,5.79241 5.34692,8.25803 v 0 l 0.23327,0.40699 a 5.6041075,5.5269771 0 0 0 -0.59808,0.64295 l 0.51434,3.47428 0.0777,0.53086 a 14.647235,14.445642 0 0 0 -2.15911,3.63944 c 0,0 2.48209,2.67796 1.98567,5.67442 -0.49642,2.9965 0.75956,6.7303 0.81938,6.93675 -0.14952,-0.16515 -1.88997,-2.0291 -3.6304,-1.57493 -1.74045,0.4542 -6.57901,1.89347 -6.57901,1.89347 0,0 -3.63638,0.63113 -3.30146,1.42154 0.33494,0.79042 -2.48207,4.25878 -2.48207,4.25878 l -9.76681,-9.13101 c -0.0957,-0.27132 -0.1914,-0.54266 -0.28112,-0.8258 a 22.506144,22.196387 0 0 1 -0.84928,-3.99924 22.266908,21.960443 0 0 0 3.12204,-0.97917 6.7404794,6.6477088 0 0 0 2.70336,-1.70469 c 0.98088,-1.17973 1.19619,-2.71925 1.57298,-4.12901 0.77154,-2.80774 2.43422,-5.30874 3.62444,-7.969 a 26.31598,25.953788 0 0 0 1.94977,-14.31587 9.5335625,9.4023494 0 0 0 -1.50121,-4.188 c -1.59092,-2.16478 -4.48568,-3.04366 -6.57901,-4.77195 -2.09332,-1.7283 -3.45695,-4.35907 -5.90911,-5.65676 -2.21294,-1.17971 -4.91631,-1.03224 -7.41035,-0.63116 a 39.904596,39.355381 0 0 0 -13.84578,4.96664 c -1.42347,0.83169 -2.99048,1.76956 -4.62923,1.49823 -1.39954,-0.24774 -2.42825,-1.35667 -3.33137,-2.41253 a 1.196181,1.1797175 0 0 1 0.0419,-0.13565 l -0.10763,-0.12383 a 17.230986,16.993831 0 0 0 -1.51914,7.20808 c 0,0.38339 0,0.76681 0.0478,1.17972 0,0.13566 0,0.27133 0,0.40699 a 2.1172402,2.0881002 0 0 1 0,0.33033 v 0 a 1.872023,1.8462581 0 0 1 -0.0718,0.50727 3.815817,3.7632991 0 0 1 -0.9151,1.3036 7.2069898,7.1077988 0 0 0 -0.79545,1.06764 c 0.0419,-0.12978 0.0838,-0.25954 0.13158,-0.38931 a 5.7715729,5.6921375 0 0 0 -1.01077,3.03186 3.0741849,3.0318743 0 0 0 0.73565,2.17659 10.352946,10.210455 0 0 0 1.59092,1.2623 18.636499,18.38 0 0 0 8.91155,19.09963 c 0.11371,0.27133 0.22129,0.54857 0.33494,0.8258 1.24401,3.24423 2.18303,7.01933 1.79428,10.50539 -0.036,0.25953 -0.0717,0.51318 -0.11967,0.7668 -0.12562,0.12979 -0.24522,0.26545 -0.35288,0.40113 v 0 c 0,0 -16.14843,0.15336 -19.92238,-3.23833 -3.77396,-3.3917 -9.56947,8.25801 -9.56947,8.25801 0,0 -5.78352,1.10893 -6.93784,0 -1.15431,-1.10894 -7.93067,-0.15336 -7.93067,-0.15336 0,0 -4.13281,-3.94615 -10.07782,-3.62764 a 29.850694,29.439854 0 0 0 -7.39829,-4.0582 v 0 l -0.18541,-0.065 v 0 a 8.3732664,8.2580233 0 0 0 -3.63638,-0.45421 c 0,0 -7.93068,-6.48844 -10.23932,-9.9332 -2.30861,-3.44479 -13.33143,-16.33909 -13.37927,-16.39809 l -0.0419,-0.58986 -0.12562,-1.87574 a 6.9199066,6.8246663 0 0 1 -0.98685,0.0827 l -0.22128,-0.64886 a 35.77777,35.285354 0 0 0 -2.34452,-5.30873 c 0,0 0,-2.35942 0.69977,-2.94929 0.69976,-0.58985 -0.28708,-9.26669 -0.28708,-9.26669 0,0 -7.14719,-16.48065 -13.54674,-4.1762 0,0 -12.09938,7.9572 -1.9438,17.2239 0,0 4.04908,1.94062 4.62323,3.47426 0.37682,0.99686 1.7524,3.7751 2.67944,5.62725 0.15552,0.30674 0.29307,0.58985 0.41271,0.82581 l -0.11371,0.0943 0.14953,1.54543 0.0598,0.58987 c -1.91389,1.07354 -3.21174,2.12938 -2.89475,2.94929 a 17.739362,17.495213 0 0 1 1.15432,4.25877 c 0,0 14.04316,17.34775 15.86135,24.77409 0,0 37.6797,22.07841 50.06018,23.65923 l -2.14715,11.03625 c 0,0 -0.66388,6.62412 -0.49641,8.98945 0.16745,2.36533 -1.48925,13.09487 -1.48925,13.09487 0,0 -2.14714,15.76692 -3.96534,17.97299 -1.81819,2.20608 -1.48326,11.67331 -1.48326,11.67331 a 80.778097,79.666331 0 0 1 -2.48207,13.40748 c -1.79428,5.99298 -0.49044,13.4016 -0.49044,13.4016 0,0 -6.27997,14.1979 8.75604,4.5773 0,0 7.38044,-0.45418 15.8793,-0.73732 q 0,0.407 0,0.8317 c 0,1.07944 -0.0359,2.24737 -0.0478,3.48017 -0.11371,8.12826 -0.1615,19.32966 0.20933,27.80594 0.65789,14.98242 5.28712,44.63462 5.28712,44.63462 v 14.89393 a 20.400865,20.120084 0 0 0 -0.43662,4.25879 28.110252,27.723364 0 0 0 4.073,14.91162 l 1.02274,9.83295 c 0,0 2.71532,6.54744 2.76916,10.45819 a 5.8014773,5.7216305 0 0 1 -0.11965,0.94967 6.9498111,6.8541594 0 0 0 -0.1316,1.52185 c -0.15549,4.51242 2.60171,15.30093 2.60171,15.30093 0,0 0.16746,10.88291 1.79427,11.51405 1.41149,0.53676 -1.88399,6.2702 -2.87083,7.91591 0,-0.10616 -0.0419,-0.20646 -0.0598,-0.31264 -0.12562,0.21236 -0.20335,0.33032 -0.20335,0.33032 a 7.829004,7.7212518 0 0 0 -0.51436,2.74875 4.0131869,3.9579526 0 0 0 1.83016,3.82818 c 3.13998,1.89345 4.82659,3.46836 2.16509,4.129 a 29.049254,28.649443 0 0 0 -2.91271,0.58987 c -0.0478,-0.12388 -0.0957,-0.24773 -0.13755,-0.3657 a 1.7942715,1.7695764 0 0 0 -1.08853,1.90524 c -0.0717,0.79631 0.19738,1.95832 0.98685,3.69252 2.64356,5.83369 4.47372,8.04567 4.47372,8.04567 l 1.26795,-0.14158 a 6.9019636,6.8069707 0 0 1 -0.73565,1.34489 5.2931005,5.2202506 0 0 1 -1.87203,1.63391 5.6340119,5.55647 0 0 1 -2.2548,0.76091 6.3935869,6.3055907 0 0 0 -4.68305,2.24737 c -1.64476,2.09989 -2.67945,4.96661 0.59809,7.47942 l 11.81827,4.02282 c 0,0 20.33507,2.60128 19.24057,-1.89345 -1.0945,-4.49472 -1.72848,-8.43497 -1.72848,-8.43497 0,0 0.22726,-4.38855 -1.65072,-7.9749 a 9.6711224,9.5380171 0 0 0 -0.71771,-1.17971 l 0.71771,-0.0827 c 0,0 1.48326,-9.93321 3.4689,-11.79718 0.45455,-0.43648 0.55625,-0.7727 0.44859,-1.02635 0.20933,-0.54267 -0.31102,-0.86118 -0.97491,-1.03815 l -0.14352,0.38931 a 9.6412182,9.5085243 0 0 0 -1.9737,-0.21825 c 0,0 -0.66388,-5.20255 1.48325,-7.07831 a 2.0095838,1.9819256 0 0 0 0.41867,-1.54543 8.4689608,8.3524008 0 0 0 -0.22129,-2.11759 c 0,0.0353 -0.0478,0.0827 -0.0777,0.11797 -1.08254,-4.71887 -4.74285,-12.22777 -4.74285,-12.22777 0,0 -0.16747,-4.71888 1.15431,-6.61821 1.32179,-1.89935 -0.16148,-25.71195 -0.16148,-25.71195 0,0 0.49641,-11.50814 -0.99283,-16.86996 -1.48924,-5.36182 1.79427,-11.67332 1.79427,-11.67332 0,0 0,-0.12385 -0.036,-0.34209 l 0.0419,-0.0827 c 0,0 -0.0717,-0.70781 -0.1914,-1.81086 a 0.8014412,0.7904108 0 0 0 -0.0419,0.10616 c -0.32895,-3.04367 -0.96293,-8.56474 -1.42346,-11.11885 -0.66388,-3.62763 0.16149,-20.97537 0.16149,-20.97537 l 2.99045,-7.40863 5.28711,12.77045 5.62207,17.03512 c 0,0 2.78112,3.59816 2.8469,7.24347 0,0.17696 0,0.35392 -0.0359,0.53087 a 9.6771034,9.5439152 0 0 0 -0.0659,1.13843 10.263232,10.121977 0 0 0 1.71053,6.06965 c 0,0 1.48924,8.03977 3.80386,10.09248 2.3146,2.05271 2.30863,5.99296 2.30863,5.99296 0,0 2.81103,11.66742 4.1328,13.72013 1.11245,1.72828 1.19617,6.48843 1.16029,7.93359 v 0 c 0,0.27134 0,0.4247 0,0.4247 0,0 0.38877,4.1703 0.3768,7.66816 0,0.43061 0,0.84941 -0.0419,1.24461 v -0.0885 a 12.751288,12.57579 0 0 1 -0.34091,2.83721 1.2739327,1.2563994 0 0 0 -0.0478,0.15927 c 0,-0.19464 0,-0.3952 0.0478,-0.58986 a 30.335149,29.917638 0 0 0 -0.82537,7.27296 c -0.0777,4.19391 0.5981,9.1664 3.14596,12.08031 4.46176,5.0492 7.2728,4.41804 7.2728,4.41804 0,0 -2.15313,6.30559 -4.78475,7.56789 a 1.7225005,1.6987934 0 0 0 -0.28109,0.17695 c 0,-0.12386 -0.0478,-0.24184 -0.0659,-0.3657 -0.55026,0.47189 -0.77154,1.32128 -0.77154,2.35943 -0.1914,2.77234 1.57893,7.27887 3.27155,9.34927 a 5.2931005,5.2202506 0 0 0 2.23087,1.28587 4.8923798,4.8250451 0 0 1 -0.41866,0.25366 7.9246985,7.8156292 0 0 1 -0.9091,0.4188 4.3540985,4.294172 0 0 1 -1.3457,0.34802 6.3277969,6.2407062 0 0 0 -4.69502,2.21786 c -1.64475,2.094 -2.67943,4.96071 0.5981,7.47352 l 11.81826,4.02282 c 0,0 20.2992,2.59539 19.21665,-1.89934 z"
     id="path3118"
     inkscape:connector-curvature="0"
     style="fill:url(#be916110-cb9e-4f1d-be15-effb40ceb94a);stroke-width:0.5939604" />
  <path
     d="m 347.58857,501.49329 -11.43549,-4.02284 c -3.15792,-2.51279 -2.15312,-5.3795 -0.55622,-7.4794 a 6.1065035,6.0224585 0 0 1 4.52755,-2.24737 5.3469285,5.2733379 0 0 0 2.18302,-0.76091 5.1854442,5.1140758 0 0 0 1.79428,-1.63392 8.4330754,8.3170092 0 0 0 1.30384,-4.35905 c 0,0 12.55989,-3.62764 15.99293,0 a 9.2046122,9.0779269 0 0 1 1.51914,2.20016 c 1.79429,3.58636 1.6029,7.97491 1.6029,7.97491 0,0 0.63996,3.93436 1.67464,8.43497 1.0347,4.50063 -18.60659,1.89345 -18.60659,1.89345 z"
     id="path3120"
     inkscape:connector-curvature="0"
     style="fill:#2d293d;stroke-width:0.5939604" />
  <path
     d="M 403.5519,495.93682 392.11641,491.914 c -3.15195,-2.51281 -2.14716,-5.37953 -0.55623,-7.47352 a 6.076599,5.9929654 0 0 1 4.52754,-2.24738 4.1029005,4.0464315 0 0 0 1.30983,-0.348 7.6914432,7.5855843 0 0 0 0.87919,-0.4188 c 3.19979,-1.73418 3.11605,-5.99297 3.11605,-5.99297 0,0 12.55989,-3.62763 15.99294,0 a 8.9055672,8.7829976 0 0 1 1.19617,1.61031 c 2.15314,3.66892 1.91389,8.56475 1.91389,8.56475 0,0 0.63996,3.94026 1.68064,8.43498 1.04067,4.49473 -18.62453,1.89345 -18.62453,1.89345 z"
     id="path3122"
     inkscape:connector-curvature="0"
     style="fill:#2d293d;stroke-width:0.5939604" />
  <path
     d="m 361.41642,480.9898 a 9.2046122,9.0779269 0 0 1 1.51916,2.20016 v 0 l -18.81595,2.15299 a 8.4330754,8.3170092 0 0 0 1.30386,-4.35905 c 0,0 12.5599,-3.61583 15.99293,0.005 z"
     id="path3124"
     inkscape:connector-curvature="0"
     style="opacity:0.1;stroke-width:0.5939604" />
  <path
     d="m 418.58787,477.04364 v 3.47427 c -2.92465,4.75427 -17.08144,3.71611 -21.19032,1.32719 a 7.6914432,7.5855843 0 0 0 0.87919,-0.4188 c 3.19979,-1.73418 3.11605,-5.99297 3.11605,-5.99297 0,0 12.55989,-3.62763 15.99294,0 a 8.9055672,8.7829976 0 0 1 1.20214,1.61031 z"
     id="path3126"
     inkscape:connector-curvature="0"
     style="opacity:0.1;stroke-width:0.5939604" />
  <path
     d="m 420.82475,462.06713 a 31.698794,31.262517 0 0 0 -2.23688,4.71887 v 12.46961 c -3.19977,5.20255 -19.83265,3.46837 -22.06951,0.63115 -2.23687,-2.83722 -4.63521,-10.25175 -2.08136,-11.51404 2.55384,-1.26231 4.62922,-7.56789 4.62922,-7.56789 0,0 -2.72132,0.63114 -7.03953,-4.41803 -4.31822,-5.04921 -3.0383,-16.24472 -2.23088,-18.92268 0.80742,-2.67797 0,-11.67331 0,-11.67331 0,0 0.1615,-6.30559 -1.11843,-8.35829 -1.2799,-2.05271 -3.96533,-13.72012 -3.96533,-13.72012 0,0 0,-3.94025 -2.24286,-5.99298 -2.24282,-2.0527 -3.67824,-10.09248 -3.67824,-10.09248 a 10.502468,10.357921 0 0 1 -1.5969,-6.77747 c 0.47847,-3.94616 -2.72131,-8.20493 -2.72131,-8.20493 l -5.43665,-17.02923 -5.11367,-12.77634 -2.8768,7.41452 c 0,0 -0.80145,17.34776 -0.1615,20.97539 0.63996,3.62762 1.5969,13.24822 1.5969,13.24822 0,0 -3.1938,6.30559 -1.75838,11.6674 1.43541,5.36182 0.96293,16.87588 0.96293,16.87588 0,0 1.43541,23.81259 0.15549,25.70604 -1.2799,1.89344 -1.11842,6.62411 -1.11842,6.62411 0,0 6.579,13.87347 4.4797,15.76693 -2.09931,1.89344 -1.44139,7.0783 -1.44139,7.0783 0,0 4.47968,0 2.55982,1.89344 -1.91988,1.89346 -3.36127,11.79718 -3.36127,11.79718 l -19.33029,2.21197 c 0,0 -1.79427,-2.21197 -4.33017,-8.04567 -2.53591,-5.8337 0.47848,-5.20255 3.05027,-5.8337 2.57177,-0.63115 0.94497,-2.20608 -2.09333,-4.12902 -3.0383,-1.92294 -1.27992,-6.15222 -1.27992,-6.15222 0,0 4.63522,-7.72715 3.03831,-8.35831 -1.59691,-0.63115 -1.75839,-11.51404 -1.75839,-11.51404 0,0 -3.19978,-12.9297 -2.39236,-16.39807 0.80743,-3.46836 -2.58973,-11.77358 -2.58973,-11.77358 l -1.11842,-9.93912 c -5.75962,-9.77397 -3.51678,-18.76341 -3.51678,-18.76341 v -15.27734 c 0,0 -4.47971,-29.64632 -5.11965,-44.62872 -0.4067,-9.59699 -0.29307,-22.69187 -0.16149,-30.86142 0.0777,-4.5832 0.16149,-7.62098 0.16149,-7.62098 l 69.07943,-7.0783 c 0,0 -0.0717,3.14395 1.256,10.12199 0.69976,3.7397 1.79427,8.58245 3.54071,14.64028 4.95816,17.34776 1.91985,30.27747 1.91985,30.27747 l -0.63996,21.91325 c 0,0 6.07661,14.66978 4.78474,19.71307 a 42.51825,41.933062 0 0 0 -1.27992,9.14871 c 0,0 13.60656,32.00575 12.16516,41.3314 -1.44141,9.32568 4.4797,23.97187 4.4797,23.97187 0,0 1.5969,10.38151 0,13.22464 z"
     id="path3128"
     inkscape:connector-curvature="0"
     style="fill:#575988;stroke-width:0.5939604" />
  <path
     d="m 381.32686,379.89979 21.02886,-2.76053 c 0,0 -11.91397,11.98593 -21.02886,2.76053 z"
     id="path3130"
     inkscape:connector-curvature="0"
     style="opacity:0.05;stroke-width:0.5939604" />
  <path
     d="m 399.31741,356.8776 c 0,0 0.71772,7.33195 -3.83974,10.09249 0,0 8.15795,-1.26231 3.83974,-10.09249 z"
     id="path3132"
     inkscape:connector-curvature="0"
     style="opacity:0.1;stroke-width:0.5939604" />
  <path
     d="m 398.02554,333.53689 c 0,0 -17.57788,14.26868 -23.97146,13.08898 -6.3936,-1.17973 23.97146,-13.08898 23.97146,-13.08898 z"
     id="path3134"
     inkscape:connector-curvature="0"
     style="opacity:0.1;stroke-width:0.5939604" />
  <path
     d="m 355.26207,386.60649 c 0,0 -13.34937,2.99058 -13.75607,8.25802 -0.40671,5.26744 13.75607,-8.25802 13.75607,-8.25802 z"
     id="path3136"
     inkscape:connector-curvature="0"
     style="opacity:0.1;stroke-width:0.5939604" />
  <path
     d="m 358.1987,452.36396 c 0,0 -18.86976,3.47425 -13.51086,5.8396 5.35888,2.36533 14.15082,4.25288 14.15082,4.25288 0,0 6.07659,0.31852 -0.63996,-10.09248 z"
     id="path3138"
     inkscape:connector-curvature="0"
     style="opacity:0.05;stroke-width:0.5939604" />
  <g
     id="g3162"
     style="opacity:0.05"
     transform="matrix(0.59809045,0,0,0.58985882,3.052588,4.0712459)">
    <path
       d="m 641.71,801.87 a 6.22,6.22 0 0 1 -2.89,-4.57 l -0.32,0.56 c 0,0 -2.94,7.22 2.14,10.43 l 1.65,1.08 c 0.93,-0.17 1.94,-0.3 2.92,-0.55 4.3,-1.07 1.58,-3.74 -3.5,-6.95 z"
       transform="translate(-76.87,-25.61)"
       id="path3140"
       inkscape:connector-curvature="0" />
    <path
       d="m 682.35,799.73 c 0.86,-0.8 0.83,-2.85 0.3,-5.49 -1.42,2.07 -1.76,5.29 -1.79,7.74 a 6.37,6.37 0 0 1 1.49,-2.25 z"
       transform="translate(-76.87,-25.61)"
       id="path3142"
       inkscape:connector-curvature="0" />
    <path
       d="m 677.49,666.72 a 35.84,35.84 0 0 0 -2.13,9.83 38.67,38.67 0 0 1 2.44,-6.75 c 0,0 -0.12,-1.21 -0.31,-3.08 z"
       transform="translate(-76.87,-25.61)"
       id="path3144"
       inkscape:connector-curvature="0" />
    <path
       d="m 749.72,652.68 a 11.69,11.69 0 0 0 0.29,-2.92 c -0.39,2 -0.67,3.85 -0.87,5.47 0.17,-0.83 0.36,-1.68 0.58,-2.55 z"
       transform="translate(-76.87,-25.61)"
       id="path3146"
       inkscape:connector-curvature="0" />
    <path
       d="m 676.73,761.77 c 0.44,-0.66 0.68,-2.86 0.8,-5.94 -1,1.95 -1.41,5.1 -1.54,7.5 a 7.29,7.29 0 0 1 0.74,-1.56 z"
       transform="translate(-76.87,-25.61)"
       id="path3148"
       inkscape:connector-curvature="0" />
    <path
       d="m 683.36,812.19 c -2.2,6 -3.69,16.42 -3.69,16.42 l -32.33,3.74 c 0,0 -3,-3.74 -7.24,-13.63 -0.37,-0.87 -0.67,-1.65 -0.91,-2.36 -1.94,0.89 -2.7,2.9 -0.16,8.77 4.28,9.89 7.24,13.64 7.24,13.64 L 678.6,835 c 0,0 2.41,-16.84 5.62,-20 1.58,-1.6 0.57,-2.41 -0.86,-2.81 z"
       transform="translate(-76.87,-25.61)"
       id="path3150"
       inkscape:connector-curvature="0" />
    <path
       d="m 640.64,764.17 c 0,0 0.27,18.45 2.94,19.52 v 0 c 1.35,-3.05 2.25,-6 1,-6.43 -2.67,-1.06 -2.94,-19.51 -2.94,-19.51 0,0 -5.35,-21.93 -4,-27.81 1.35,-5.88 -4.28,-20.05 -4.28,-20.05 l -1.87,-16.84 c -9.63,-16.58 -5.88,-31.82 -5.88,-31.82 v -25.92 c 0,0 -7.49,-50.27 -8.56,-75.67 -0.68,-16.26 -0.49,-38.46 -0.27,-52.31 0,-2.51 0.09,-4.73 0.13,-6.6 l -0.93,0.09 c 0,0 -0.14,5.15 -0.27,12.92 -0.22,13.85 -0.41,36 0.27,52.32 1.07,25.4 8.56,75.66 8.56,75.66 v 25.94 c 0,0 -3.75,15.24 5.88,31.81 l 1.87,16.85 c 0,0 5.61,14.17 4.28,20 -1.33,5.83 4.07,27.85 4.07,27.85 z"
       transform="translate(-76.87,-25.61)"
       id="path3152"
       inkscape:connector-curvature="0" />
    <path
       d="m 735.82,825.13 a 31.16,31.16 0 0 1 -5.12,-12.7 c -3.3,3 0.49,14.55 4,19.12 3.74,4.81 31.55,7.75 36.9,-1.07 v -5.09 c -7.18,7.17 -32.24,4.29 -35.78,-0.26 z"
       transform="translate(-76.87,-25.61)"
       id="path3154"
       inkscape:connector-curvature="0" />
    <path
       d="m 776.46,794.92 a 52.55,52.55 0 0 0 -3.75,8 v 3.75 c 0.61,-1.37 1.48,-3.2 2.68,-5.35 0.77,-1.39 1.09,-3.84 1.17,-6.63 -0.04,0.09 -0.07,0.17 -0.1,0.23 z"
       transform="translate(-76.87,-25.61)"
       id="path3156"
       inkscape:connector-curvature="0" />
    <path
       d="m 737.46,799.13 a 50.73,50.73 0 0 0 2.64,-6.35 c 0,0 -4.55,1.07 -11.77,-7.48 -5.25,-6.23 -5.55,-18 -4.8,-25.67 -1.35,4.55 -3.48,23.53 3.73,32.08 4.74,5.6 8.29,7.07 10.2,7.42 z"
       transform="translate(-76.87,-25.61)"
       id="path3158"
       inkscape:connector-curvature="0" />
    <path
       d="m 723.52,739.84 a 142.48,142.48 0 0 1 0.53,15.85 22.77,22.77 0 0 1 0.55,-2.48 c 1.35,-4.54 0,-19.78 0,-19.78 0,0 0.27,-10.7 -1.87,-14.17 C 720.59,715.79 716,696 716,696 c 0,0 0,-6.69 -3.74,-10.16 -3.74,-3.47 -6.15,-17.11 -6.15,-17.11 a 17.6,17.6 0 0 1 -2.67,-11.5 c 0.8,-6.68 -4.55,-13.9 -4.55,-13.9 l -9.09,-28.88 -8.55,-21.65 -4.82,12.56 c 0,0 -0.07,1.58 -0.16,4.06 l 3.91,-10.21 8.55,21.66 9.09,28.87 c 0,0 5.35,7.22 4.55,13.91 a 17.56,17.56 0 0 0 2.67,11.49 c 0,0 2.41,13.64 6.15,17.11 3.74,3.47 3.81,10.16 3.81,10.16 0,0 4.55,19.79 6.69,23.26 2.14,3.47 1.83,14.17 1.83,14.17 z"
       transform="translate(-76.87,-25.61)"
       id="path3160"
       inkscape:connector-curvature="0" />
  </g>
  <path
     d="m 403.25284,135.24997 -1.19617,5.75701 0.0717,2.55999 0.0478,1.89344 -6.69861,0.64885 -0.74762,-1.36259 v 0 c -1.38159,-2.46559 -4.24644,-7.4853 -5.17945,-8.25801 -1.23208,-1.02634 -3.43304,-17.03513 -0.78948,-16.08544 a 6.9916774,6.8954493 0 0 1 3.71414,3.31499 c 0,0 13.1221,1.50414 10.77759,11.53176 z"
     id="path3164"
     inkscape:connector-curvature="0"
     style="fill:#ffcdd3;stroke-width:0.5939604" />
  <path
     d="m 402.15236,145.43092 -6.67469,0.67834 -0.7476,-1.36259 v 0 c 0.95694,-0.97325 3.6902,-3.18522 7.36846,-1.1797 z"
     id="path3166"
     inkscape:connector-curvature="0"
     style="opacity:0.1;stroke-width:0.5939604" />
  <path
     d="m 403.85094,148.54538 -8.80989,2.04091 -0.18539,-1.29769 -0.49643,-3.47427 c 0,0 3.47492,-4.5773 8.51683,-1.15022 l 0.4366,1.76957 z"
     id="path3168"
     inkscape:connector-curvature="0"
     style="fill:#dce6f2;stroke-width:0.5939604" />
  <path
     d="m 261.31403,135.83982 -9.37807,4.9784 c 0,0 -0.35883,-0.73143 -0.84928,-1.76958 -0.89714,-1.84625 -2.2249,-4.63038 -2.58974,-5.62725 -0.55621,-1.53362 -4.47969,-3.46837 -4.47969,-3.46837 -9.82663,-9.26667 1.88398,-17.22978 1.88398,-17.22978 6.19621,-12.29856 13.11015,4.17622 13.11015,4.17622 0,0 0.95694,8.68271 0.28109,9.26667 -0.67584,0.58397 -0.67584,2.94931 -0.67584,2.94931 a 36.304091,35.80443 0 0 1 2.26078,5.30872 c 0.2811,0.88479 0.43662,1.41566 0.43662,1.41566 z"
     id="path3170"
     inkscape:connector-curvature="0"
     style="fill:#ffcdd3;stroke-width:0.5939604" />
  <path
     d="m 261.31403,135.83982 -9.37807,4.9784 c 0,0 -0.35883,-0.73143 -0.84928,-1.76958 1.32178,-1.09123 6.02277,-4.84863 7.56585,-4.67757 a 11.244101,11.089346 0 0 0 2.22488,0.0531 c 0.2811,0.88479 0.43662,1.41567 0.43662,1.41567 z"
     id="path3172"
     inkscape:connector-curvature="0"
     style="opacity:0.1;stroke-width:0.5939604" />
  <path
     d="m 262.27694,138.64755 -10.55629,5.13176 -0.20933,-2.24145 -0.17344,-1.56903 c 0,0 6.11248,-5.16715 7.91871,-4.96662 a 9.45581,9.3256675 0 0 0 2.7572,0 l 0.11967,1.87575 z"
     id="path3174"
     inkscape:connector-curvature="0"
     style="fill:#dce6f2;stroke-width:0.5939604" />
  <path
     d="m 377.6486,173.46691 c 0,0 -46.01708,5.11999 -37.41654,2.35943 5.9809,-1.92293 8.37327,-5.68033 8.8637,-9.84473 0.40671,-3.48608 -0.50239,-7.25528 -1.71053,-10.4995 a 45.801767,45.171387 0 0 0 -4.11488,-8.19904 c 0,0 35.17968,-19.08782 28.11025,-1.76957 a 28.23585,27.847234 0 0 0 -1.99165,8.22264 23.427203,23.104769 0 0 0 0.90313,8.32289 25.119799,24.774069 0 0 0 7.35652,11.40788 z"
     id="path3176"
     inkscape:connector-curvature="0"
     style="fill:#ffcdd3;stroke-width:0.5939604" />
  <path
     d="m 371.41051,145.5489 a 28.23585,27.847234 0 0 0 -1.99164,8.22263 c -3.31342,2.74284 -6.94982,2.56587 -11.61492,2.56587 -3.58854,0 -7.55389,0.85531 -10.41872,-0.84939 a 45.801767,45.171387 0 0 0 -4.11488,-8.19902 c 0,0 35.17968,-19.08785 28.14016,-1.74009 z"
     id="path3178"
     inkscape:connector-curvature="0"
     style="opacity:0.1;stroke-width:0.5939604" />
  <ellipse
     cx="357.18192"
     cy="138.77141"
     id="circle3180"
     style="fill:#ffcdd3;stroke-width:0.5939604"
     rx="19.031239"
     ry="18.769306" />
  <path
     d="m 377.6486,173.46691 c 0,0 -46.01708,5.11999 -37.41654,2.35943 5.9809,-1.92293 8.37327,-5.68033 8.8637,-9.84473 2.29069,-2.44202 6.89598,-4.21158 9.85055,-5.14946 a 13.797946,13.608043 0 0 1 8.37326,-0.13568 11.50128,11.342985 0 0 1 3.03233,1.39207 25.119799,24.774069 0 0 0 7.2967,11.37837 z"
     id="path3182"
     inkscape:connector-curvature="0"
     style="opacity:0.1;stroke-width:0.5939604" />
  <path
     d="m 403.85094,148.54538 -8.80989,2.04091 -0.18539,-1.29769 c 2.48207,-3.12625 5.61009,-3.50376 8.457,-2.84902 z"
     id="path3184"
     inkscape:connector-curvature="0"
     style="opacity:0.1;stroke-width:0.5939604" />
  <path
     d="m 262.27694,138.64755 -10.55629,5.13176 -0.20933,-2.24145 c 3.77395,-2.19428 10.09578,-4.45344 10.64602,-4.64809 z"
     id="path3186"
     inkscape:connector-curvature="0"
     style="opacity:0.1;stroke-width:0.5939604" />
  <path
     d="m 395.85447,287.82874 c -17.8231,2.77233 -43.1881,6.38816 -47.21326,5.17896 -3.33734,-1.00277 -14.00129,-0.89658 -23.28366,-0.58987 0.0777,-4.58319 0.16149,-7.62098 0.16149,-7.62098 l 69.07943,-7.07829 c 0,0 -0.0717,3.13214 1.256,10.11018 z"
     id="path3188"
     inkscape:connector-curvature="0"
     style="opacity:0.1;stroke-width:0.5939604" />
  <path
     d="m 413.62972,283.69972 c 0,0 -58.68464,9.93913 -64.98851,8.04566 -6.30387,-1.89342 -38.63066,0.15928 -38.63066,0.15928 -14.55154,9.61469 -8.47494,-4.57732 -8.47494,-4.57732 0,0 -1.27992,-7.40862 0.47847,-13.40157 a 83.134573,81.990374 0 0 0 2.39236,-13.4075 c 0,0 -0.31698,-9.43774 1.4414,-11.66741 1.75839,-2.22965 3.83375,-17.9789 3.83375,-17.9789 0,0 1.6029,-10.72363 1.44141,-13.08895 -0.16149,-2.36534 0.47847,-8.98946 0.47847,-8.98946 l 2.08732,-11.01856 c -11.96179,-1.57492 -48.44531,-23.65333 -48.44531,-23.65333 -1.75839,-7.41454 -15.35299,-24.77408 -15.35299,-24.77408 a 18.540803,18.285623 0 0 0 -1.11842,-4.25877 c -0.96293,-2.52461 13.4331,-7.56789 13.4331,-7.56789 0,0 10.7118,12.92969 12.94867,16.39808 2.23685,3.46837 9.91633,9.93911 9.91633,9.93911 a 7.6914432,7.5855843 0 0 1 3.51677,0.4542 c 0.0659,0 0.11966,0.0355 0.18541,0.0531 0.0659,0.0177 0,0 0,0 3.58855,1.23279 7.17709,4.05232 7.17709,4.05232 5.75962,-0.31262 9.75486,3.62764 9.75486,3.62764 0,0 6.57898,-0.94379 7.67349,0.15926 1.09452,1.10303 6.71656,0 6.71656,0 0,0 5.59812,-11.67331 9.27638,-8.25802 3.67826,3.41527 19.28245,3.23243 19.28245,3.23243 2.08134,-2.72515 7.1412,-4.67759 10.3051,-5.68624 a 13.797946,13.608043 0 0 1 8.37325,-0.13567 10.616106,10.469994 0 0 1 3.2895,1.56902 l 9.46777,9.14282 c 0,0 2.72132,-3.46837 2.39237,-4.2588 -0.32896,-0.7904 3.19978,-1.41566 3.19978,-1.41566 0,0 4.6352,-1.42155 6.39358,-1.89343 1.7584,-0.47189 3.37324,1.40385 3.51679,1.56901 -0.0598,-0.20054 -1.26198,-4.01693 -0.79548,-6.93083 0.46653,-2.9139 -1.91986,-5.68034 -1.91986,-5.68034 5.59813,-13.56675 18.2298,-2.20608 18.2298,-2.20608 0,0 1.44139,7.41453 0.16147,10.25175 -1.27991,2.83722 1.27992,8.84789 0.95695,10.4051 -0.32296,1.55723 0.63996,4.2588 0.63996,7.25527 0,2.99648 -1.59691,8.67683 -2.55982,11.20731 -0.96293,2.5305 -8.66634,8.16955 -8.66634,8.16955 0,0 -0.48445,8.98945 -3.83974,14.192 -3.35527,5.20256 -1.2799,23.0045 -1.2799,23.0045 0,0 3.19978,13.87937 7.17706,18.28563 3.97732,4.40623 9.9343,29.67579 9.9343,29.67579 z"
     id="path3190"
     inkscape:connector-curvature="0"
     style="fill:#656691;stroke-width:0.5939604" />
  <path
     d="m 328.07887,179.93176 c 0,0 -1.75839,-5.20255 -3.3553,-5.68034 a 37.28496,36.771797 0 0 1 -4.64117,-2.0468 l 1.02871,-1.94063 c 0,0 6.0108,1.6221 6.96776,3.35627 0.95694,1.73419 0,6.3115 0,6.3115 z"
     id="path3192"
     inkscape:connector-curvature="0"
     style="opacity:0.1;stroke-width:0.5939604" />
  <path
     d="m 295.93749,168.41772 c -0.31699,1.58081 -14.55156,2.99648 -14.55156,2.99648 l 7.1771,-7.1137 v 0 l 0.17942,0.059 c 0,0 0,0 0,0 3.6364,1.23871 7.19504,4.05824 7.19504,4.05824 z"
     id="path3194"
     inkscape:connector-curvature="0"
     style="opacity:0.1;stroke-width:0.5939604" />
  <ellipse
     cx="254.75897"
     cy="146.76993"
     id="circle3196"
     style="fill:#575988;stroke-width:0.5939604"
     rx="1.2799137"
     ry="1.2622979" />
  <ellipse
     cx="256.39767"
     cy="149.29451"
     id="circle3198"
     style="fill:#575988;stroke-width:0.5939604"
     rx="1.2799137"
     ry="1.2622979" />
  <ellipse
     cx="258.00061"
     cy="151.62444"
     id="circle3200"
     style="fill:#575988;stroke-width:0.5939604"
     rx="1.2799137"
     ry="1.2622979" />
  <ellipse
     cx="259.67526"
     cy="154.14311"
     id="circle3202"
     style="fill:#575988;stroke-width:0.5939604"
     rx="1.2799137"
     ry="1.2622979" />
  <ellipse
     cx="410.40598"
     cy="154.00745"
     id="circle3204"
     style="fill:#575988;stroke-width:0.5939604"
     rx="1.0406774"
     ry="1.0263543" />
  <ellipse
     cx="410.56747"
     cy="156.33151"
     id="circle3206"
     style="fill:#575988;stroke-width:0.5939604"
     rx="1.0406774"
     ry="1.0263543" />
  <ellipse
     cx="410.71106"
     cy="158.66147"
     id="circle3208"
     style="fill:#575988;stroke-width:0.5939604"
     rx="1.0406774"
     ry="1.0263543" />
  <path
     d="m 328.15662,222.66703 c -0.14355,-0.18286 35.88541,44.7113 63.88203,18.76931 0,-0.0117 -44.21084,5.91628 -63.88203,-18.76931 z"
     id="path3210"
     inkscape:connector-curvature="0"
     style="opacity:0.1;stroke-width:0.5939604" />
  <path
     d="m 307.45073,246.00775 c 0,0 21.56713,0.58985 23.82792,6.70079 v 6.36458 a 4.1088814,4.0523301 0 0 1 -4.01319,0 c -2.17706,-1.17971 -15.21542,-7.66816 -19.81473,-4.54781 z"
     id="path3212"
     inkscape:connector-curvature="0"
     style="opacity:0.1;stroke-width:0.5939604" />
  <path
     d="m 307.85144,246.00775 c 0,0 20.62814,0.55447 22.78725,6.38817 v 6.06965 a 3.9354353,3.881271 0 0 1 -3.83975,0 c -2.07537,-1.10304 -14.55153,-7.33194 -18.9475,-4.33546 z"
     id="path3214"
     inkscape:connector-curvature="0"
     style="fill:#656691;stroke-width:0.5939604" />
  <path
     d="m 319.22712,199.81591 c 0,0 2.47011,6.2643 8.37327,14.15661 a 56.310215,55.535207 0 0 0 13.09219,12.46961 c 0,0 -21.1066,-23.70052 -21.46546,-26.62622 z"
     id="path3216"
     inkscape:connector-curvature="0"
     style="opacity:0.1;stroke-width:0.5939604" />
  <path
     d="m 312.16965,175.09492 c 0,0 3.58855,15.33633 12.87091,20.52708 z"
     id="path3218"
     inkscape:connector-curvature="0"
     style="opacity:0.1;stroke-width:0.5939604" />
  <path
     d="m 306.64928,176.64625 c -0.0898,-0.28314 -3.1938,12.11569 11.96181,18.97575 -0.006,0 -6.44144,-2.15298 -11.96181,-18.97575 z"
     id="path3220"
     inkscape:connector-curvature="0"
     style="opacity:0.1;stroke-width:0.5939604" />
  <path
     d="m 400.86049,166.37092 c -0.23924,0 7.47612,4.84273 9.56945,7.07829 0,0.0177 -5.03594,-7.39683 -9.56945,-7.07829 z"
     id="path3222"
     inkscape:connector-curvature="0"
     style="opacity:0.1;stroke-width:0.5939604" />
  <path
     d="m 352.03835,155.78295 c 0.26916,0.96735 0.59811,2.02911 1.48327,2.5364 a 4.0610341,4.0051413 0 0 0 1.79427,0.3952 c 5.80147,0.35391 11.83621,0.58986 17.20707,-1.59852 a 6.4952624,6.4058667 0 0 0 2.61366,-1.71059 c 0.95096,-1.15024 1.13637,-2.71336 1.51916,-4.12902 0.75358,-2.80184 2.35647,-5.30873 3.51677,-7.96898 a 27.147325,26.773691 0 0 0 1.88398,-14.30998 9.8266263,9.6913801 0 0 0 -1.45337,-4.19391 c -1.54307,-2.16477 -4.34213,-3.04366 -6.38163,-4.76605 -2.03949,-1.72239 -3.34332,-4.35905 -5.71774,-5.65674 -2.14116,-1.17973 -4.78471,-1.03226 -7.17709,-0.63116 a 37.835203,37.314468 0 0 0 -13.39721,4.96072 c -1.37563,0.83759 -2.88879,1.79907 -4.47971,1.50413 -1.38756,-0.25952 -2.39236,-1.40975 -3.2895,-2.48919 a 17.685535,17.442124 0 0 0 -1.42942,8.17543 3.5107909,3.4624712 0 0 1 -0.0419,1.23281 3.7081608,3.6571247 0 0 1 -0.88517,1.29769 c -1.42943,1.6398 -2.32657,4.23519 -0.90908,5.8986 0.59807,0.71961 1.561,1.11482 2.1591,1.84625 1.07656,1.32128 0.71173,3.21473 0.6878,4.90171 a 2.5299226,2.4951028 0 0 0 0.41865,1.66342 c 0.53831,0.64295 1.51916,0.69603 2.35051,0.55447 0.83133,-0.14157 1.68064,-0.4188 2.50001,-0.23594 a 4.1866331,4.1290117 0 0 1 2.17705,1.6516 c 2.67945,3.3327 3.72612,7.0547 4.85051,11.07165 z"
     id="path3224"
     inkscape:connector-curvature="0"
     style="fill:#2d293d;stroke-width:0.5939604" />
  <g
     id="g3230"
     style="opacity:0.1"
     transform="matrix(0.59809045,0,0,0.58985882,3.052588,4.0712459)">
    <path
       d="m 700.06,279.72 a 10.86,10.86 0 0 1 -4.37,2.9 c -9,3.74 -19.07,3.31 -28.77,2.7 a 6.65,6.65 0 0 1 -3,-0.66 c -1.47,-0.87 -2,-2.66 -2.48,-4.3 -1.88,-6.86 -3.63,-13.12 -8.11,-18.82 a 7,7 0 0 0 -3.64,-2.8 c -1.37,-0.31 -2.79,0.16 -4.18,0.4 -1.39,0.24 -3,0.15 -3.93,-0.94 a 4.23,4.23 0 0 1 -0.7,-2.82 c 0,-2.86 0.64,-6.08 -1.15,-8.31 -1,-1.25 -2.58,-1.91 -3.62,-3.13 -1.48,-1.77 -1.44,-4.16 -0.61,-6.39 -1.7,2.7 -2.44,6.17 -0.45,8.52 1,1.23 2.61,1.89 3.61,3.14 1.79,2.23 1.19,5.45 1.15,8.31 a 4.23,4.23 0 0 0 0.7,2.82 c 0.9,1.09 2.54,1.18 3.93,0.94 1.39,-0.24 2.81,-0.71 4.18,-0.4 a 7,7 0 0 1 3.64,2.8 c 4.48,5.7 6.23,12 8.11,18.82 0.45,1.63 1,3.43 2.48,4.3 a 6.65,6.65 0 0 0 3,0.66 c 9.7,0.61 19.79,1 28.77,-2.7 a 10.86,10.86 0 0 0 4.37,-2.9 8.46,8.46 0 0 0 1.38,-2.58 c -0.1,0.15 -0.2,0.3 -0.31,0.44 z"
       transform="translate(-76.87,-25.61)"
       id="path3226"
       inkscape:connector-curvature="0" />
    <path
       d="m 638.15,233.36 a 4.54,4.54 0 0 0 1,-1.61 5.87,5.87 0 0 0 0.07,-2.09 29.76,29.76 0 0 1 1.49,-11.51 l -0.17,-0.21 a 29.55,29.55 0 0 0 -2.39,13.86 8.14,8.14 0 0 1 0,1.56 z"
       transform="translate(-76.87,-25.61)"
       id="path3228"
       inkscape:connector-curvature="0" />
  </g>
  <path
     d="m 348.64121,167.15542 c 0,0 23.77409,3.10857 25.90928,-0.4129"
     id="path3232"
     inkscape:connector-curvature="0"
     style="opacity:0.1;stroke-width:0.5939604" />
  <path
     d="m 394.87959,157.45814 c 0,0 13.20584,0 16.11256,4.89582"
     id="path3234"
     inkscape:connector-curvature="0"
     style="opacity:0.1;stroke-width:0.5939604" />
</svg>
